#N canvas 69 136 1311 721 10;
#X obj 3 0 cnv 15 740 1021 empty empty empty 20 12 0 14 -257153 -66577
0;
#X obj 397 525 cnv 15 304 469 empty empty empty 20 12 0 14 -129258
-66577 0;
#X obj 18 522 cnv 15 315 472 empty empty empty 20 12 0 14 -129258 -66577
0;
#X obj 19 15 cnv 15 316 476 empty empty empty 20 12 0 14 -129258 -66577
0;
#X obj 391 15 cnv 15 314 471 empty empty empty 20 12 0 14 -129258 -66577
0;
#X obj 780 609 cnv 15 375 373 empty empty empty 20 12 0 14 -215173
-258244 0;
#N canvas 610 397 773 711 Controller 0;
#X obj -31 -207 cnv 15 375 586 empty empty empty 20 12 0 14 -238934
-66577 0;
#X obj 123 178 outlet;
#N canvas 575 199 799 604 presets 0;
#X obj 403 55 table prueba;
#X msg 388 -4 \; prueba resize \$1;
#X msg 538 -34 0;
#X msg 538 -3 \; prueba const \$1;
#X obj 88 27 tabread prueba;
#X msg 205 -39 set prueba;
#X obj 39 145 moses 0;
#X floatatom 39 181 5 0 0 0 - - -, f 5;
#X floatatom 100 180 5 0 0 0 - - -, f 5;
#X obj 48 -49 r count;
#X obj 66 313 mtof;
#X obj 69 379 outlet;
#X msg 398 91 \; prueba read basspattern1.txt;
#X msg 399 135 \; prueba read basspattern2.txt;
#X msg 402 177 \; prueba read basspattern3.txt;
#X msg 399 221 \; prueba read basspattern4.txt;
#X obj 315 48 r bass1;
#X obj 313 106 r bass2;
#X obj 313 149 r bass3;
#X obj 297 215 r bass4;
#X floatatom 68 345 5 0 0 0 - - -, f 5;
#X msg 387 -33 128;
#X obj 389 -59 loadbang;
#X obj 140 127 s octdown;
#X obj 125 64 moses 0;
#X obj 101 92 - 100;
#X obj 100 214 + 36;
#X obj 167 102 + 24;
#X text 96 278 Filter silences to avoid bumps;
#X text 142 146 Send the pitch with an octave lower, f 19;
#X connect 2 0 3 0;
#X connect 4 0 6 0;
#X connect 4 0 24 0;
#X connect 5 0 4 0;
#X connect 6 0 7 0;
#X connect 6 1 8 0;
#X connect 7 0 10 0;
#X connect 8 0 26 0;
#X connect 9 0 4 0;
#X connect 10 0 20 0;
#X connect 16 0 12 0;
#X connect 17 0 13 0;
#X connect 18 0 14 0;
#X connect 19 0 15 0;
#X connect 20 0 11 0;
#X connect 21 0 1 0;
#X connect 22 0 21 0;
#X connect 24 0 25 0;
#X connect 24 1 27 0;
#X connect 25 0 23 0;
#X connect 26 0 10 0;
#X connect 27 0 23 0;
#X restore 124 143 pd presets;
#N canvas 1229 447 566 610 counter 0;
#X obj 180 418 counter;
#X msg 202 345 0;
#X floatatom 186 486 5 0 0 0 - - -, f 5;
#X obj 200 316 r stop, f 9;
#X obj 187 512 s count;
#X obj 360 176 del 500;
#X obj 468 106 r bass4;
#X obj 490 152 r bass3;
#X obj 491 192 r bass1;
#X obj 154 112 r countsync;
#X obj 426 219 r bass2;
#X obj 51 177 r onoff;
#X floatatom 744 199 5 0 0 0 - - -, f 5;
#X obj 186 459 % 128;
#X obj 190 205 /;
#X obj 156 259 metro 500;
#X obj 219 174 * 2;
#X obj 44 -38 r doublenote;
#X obj 50 11 * 2;
#X obj 73 67 sel 0 2;
#X msg 87 126 4;
#X msg 53 117 2;
#X connect 0 0 13 0;
#X connect 1 0 0 3;
#X connect 2 0 4 0;
#X connect 3 0 1 0;
#X connect 5 0 0 3;
#X connect 6 0 5 0;
#X connect 7 0 5 0;
#X connect 8 0 5 0;
#X connect 9 0 14 0;
#X connect 10 0 5 0;
#X connect 11 0 15 0;
#X connect 11 0 16 0;
#X connect 13 0 2 0;
#X connect 14 0 15 1;
#X connect 15 0 0 0;
#X connect 16 0 14 1;
#X connect 17 0 18 0;
#X connect 18 0 19 0;
#X connect 19 0 21 0;
#X connect 19 1 20 0;
#X connect 20 0 14 1;
#X connect 21 0 14 1;
#X restore 24 249 pd counter;
#X obj 229 174 outlet~;
#N canvas 69 52 1851 1028 chords 0;
#X obj 446 364 vcf~;
#X floatatom 859 171 5 0 0 0 - - -, f 5;
#X obj 446 383 *~;
#X floatatom 646 175 5 0 0 0 - - -, f 5;
#X floatatom 710 174 5 0 0 0 - - -, f 5;
#X floatatom 788 174 7 0 0 0 - - -, f 7;
#X obj 649 302 *~ 2000;
#X floatatom 748 174 5 0 0 0 - - -, f 5;
#X obj 649 340 +~;
#X text 732 253 Amplitude Envelop;
#X obj 624 255 adsr 2 5 30 50 10;
#X obj 649 320 *~;
#X text 742 283 Filter Envelop;
#X obj 649 283 adsr 2 5 30 0 0;
#X text 537 368 la TB303 tenía control de: - 2 formas de onda opcionales
(Saw/Square) (con 0-1) - Decay (ms) - ModEnv: en q medida la envolvente
modula el filtro - CutOff freq: freq base q se añade a la del la envolv
- Resonancia;
#X text 704 303 ponemos 2(>1) para tener + distorsión en el Attack
;
#X obj 250 229 *~, f 4;
#X obj 317 229 *~;
#X obj 387 228 *~;
#X obj 317 326 *~;
#X obj 416 304 line~;
#X msg 416 277 \$1 20;
#X obj 463 255 hsl 128 15 0 1 0 0 empty empty empty -2 -6 0 8 -262144
-1 -1 12700 1;
#X floatatom 250 113 5 0 0 0 - - -, f 5;
#X floatatom 318 114 5 0 0 0 - - -, f 5;
#X floatatom 387 115 5 0 0 0 - - -, f 5;
#X obj 250 151 mtof;
#X obj 317 152 mtof;
#X obj 387 152 mtof;
#X msg 136 -63 bang;
#X text 420 254 volume;
#X obj 250 171 phasor~;
#X obj 317 171 phasor~;
#X obj 387 171 phasor~;
#X obj 250 131 + 0;
#X obj 318 132 + 0;
#X obj 387 133 + 0;
#X obj 531 196 line~;
#X msg 531 169 \$1 20;
#X obj 250 191 *~ 2;
#X obj 250 210 -~ 1;
#X obj 317 190 *~ 2;
#X obj 317 209 -~ 1;
#X obj 387 190 *~ 2;
#X obj 387 209 -~ 1;
#X obj 250 92 +;
#X obj 318 93 +;
#X obj 387 95 +;
#X text 134 -81 C;
#X text 171 -81 C#;
#X text 1555 11 D;
#X text 1514 -33 D#;
#X text 282 -81 E;
#X text 317 -81 F;
#X text 1561 61 F#;
#X text 389 -81 G;
#X text 424 -81 G#;
#X text 463 -81 A;
#X text 1569 145 A#;
#X text 536 -81 B;
#X text 1475 13 Cm;
#X text 609 -81 C#m;
#X text 646 -81 Dm;
#X text 681 -82 D#m;
#X text 717 -82 Em;
#X text 753 -82 Fm;
#X text 791 -81 F#m;
#X text 1388 13 Gm;
#X text 861 -81 G#m;
#X text 897 -85 Am;
#X text 935 -82 A#m;
#X text 970 -82 Bm;
#X msg 250 71 48;
#X msg 335 72 51;
#X msg 304 72 52;
#X msg 386 74 55;
#X obj 136 -43 t b b;
#X msg 243 18 0;
#X msg 277 18 1;
#X msg 311 18 2;
#X msg 345 18 3;
#X msg 379 18 4;
#X msg 413 18 5;
#X msg 447 17 6;
#X msg 481 17 7;
#X msg 515 17 8;
#X msg 550 18 9;
#X msg 583 17 10;
#X msg 617 17 11;
#X msg 173 -63 bang;
#X obj 173 -43 t b b;
#X msg 1557 29 bang;
#X obj 210 -43 t b b;
#X msg 1516 -15 bang;
#X obj 246 -43 t b b;
#X msg 283 -63 bang;
#X obj 283 -43 t b b;
#X msg 319 -63 bang;
#X obj 319 -43 t b b;
#X msg 1563 79 bang;
#X obj 355 -43 t b b;
#X msg 391 -63 bang;
#X obj 391 -43 t b b;
#X msg 427 -63 bang;
#X obj 427 -43 t b b;
#X msg 464 -63 bang;
#X obj 464 -43 t b b;
#X msg 1552 125 bang;
#X obj 501 -43 t b b;
#X msg 538 -63 bang;
#X obj 538 -43 t b b;
#X msg 1472 33 bang;
#X obj 575 -43 t b b;
#X msg 611 -63 bang;
#X obj 611 -43 t b b;
#X msg 648 -63 bang;
#X obj 648 -43 t b b;
#X msg 684 -63 bang;
#X obj 684 -43 t b b;
#X msg 720 -63 bang;
#X obj 720 -43 t b b;
#X msg 756 -63 bang;
#X obj 756 -43 t b b;
#X msg 791 -61 bang;
#X obj 792 -43 t b b;
#X msg 1391 31 bang;
#X obj 829 -43 t b b;
#X msg 865 -63 bang;
#X obj 865 -43 t b b;
#X msg 1404 251 bang;
#X obj 901 -43 t b b;
#X msg 938 -63 bang;
#X obj 938 -43 t b b;
#X msg 974 -63 bang;
#X obj 974 -43 t b b;
#X obj 317 349 clip~ -1 1;
#X obj 323 426 vline~;
#X obj 447 428 *~;
#X obj 100 125 s sus;
#X obj 100 71 switch 1;
#X obj 100 101 sel 0 1;
#X msg 272 406 1 10;
#X obj 272 380 r sus;
#X text 73 145 0 to sustain 1 to cut off;
#X msg 320 404 1 10 \, 0 500 200;
#X obj 449 590 outlet~;
#X obj 445 478 *~;
#X obj 614 467 / 127;
#X obj 613 504 pack 0 50;
#X obj 615 533 line~;
#X obj 613 442 r chordvol;
#X obj 638 137 r ch_vel;
#X obj 709 137 r ch_dec;
#X obj 756 101 r ch_modenv;
#X obj 792 125 r ch_cut;
#X obj 529 126 r chon;
#X obj 52 -17 r suson;
#X obj 868 131 r ch_res;
#X msg 160 68 1;
#X obj 140 123 s cutt;
#X obj 323 379 r cutt;
#X obj 49 16 \$1 1 \$0 0;
#X msg 1047 159 \; ch_vel 56.02 \; ch_dec 500 \; ch_modenv 1 \; ch_cut
606.796 \; ch_res 11.21 \;;
#X msg 1050 276 \; ch_vel 11.2 \; ch_dec 282.1 \; ch_modenv 0.247 \;
ch_cut 3082.52 \; ch_res 20 \;;
#X obj 971 127 loadbang;
#X obj 455 180 loadbang;
#X msg 504 229 100;
#X obj 1384 -53 r gm;
#X obj 1461 -26 r cm;
#X obj 1504 -65 r dsharp;
#X obj 1576 6 r dmaj;
#X obj 1612 73 r fsharp;
#X obj 1571 104 r asharp;
#X obj 1065 89 r chtone1;
#X obj 973 225 r chtone2;
#X obj 1408 211 r aminor;
#X connect 0 0 2 0;
#X connect 1 0 0 2;
#X connect 2 0 137 0;
#X connect 3 0 10 0;
#X connect 3 0 13 0;
#X connect 4 0 10 3;
#X connect 4 0 13 3;
#X connect 5 0 8 1;
#X connect 6 0 11 0;
#X connect 7 0 11 1;
#X connect 8 0 0 1;
#X connect 10 0 2 1;
#X connect 11 0 8 0;
#X connect 13 0 6 0;
#X connect 16 0 19 0;
#X connect 17 0 19 0;
#X connect 18 0 19 0;
#X connect 19 0 135 0;
#X connect 20 0 19 1;
#X connect 21 0 20 0;
#X connect 22 0 21 0;
#X connect 23 0 34 0;
#X connect 24 0 35 0;
#X connect 25 0 36 0;
#X connect 26 0 31 0;
#X connect 27 0 32 0;
#X connect 28 0 33 0;
#X connect 29 0 76 0;
#X connect 31 0 39 0;
#X connect 32 0 41 0;
#X connect 33 0 43 0;
#X connect 34 0 26 0;
#X connect 35 0 27 0;
#X connect 36 0 28 0;
#X connect 37 0 18 1;
#X connect 37 0 17 1;
#X connect 37 0 16 1;
#X connect 38 0 37 0;
#X connect 39 0 40 0;
#X connect 40 0 16 0;
#X connect 41 0 42 0;
#X connect 42 0 17 0;
#X connect 43 0 44 0;
#X connect 44 0 18 0;
#X connect 45 0 23 0;
#X connect 46 0 24 0;
#X connect 47 0 25 0;
#X connect 72 0 45 0;
#X connect 73 0 46 0;
#X connect 74 0 46 0;
#X connect 75 0 47 0;
#X connect 76 0 72 0;
#X connect 76 0 74 0;
#X connect 76 0 75 0;
#X connect 76 0 139 0;
#X connect 76 1 77 0;
#X connect 77 0 45 1;
#X connect 77 0 46 1;
#X connect 77 0 47 1;
#X connect 78 0 45 1;
#X connect 78 0 46 1;
#X connect 78 0 47 1;
#X connect 79 0 46 1;
#X connect 79 0 45 1;
#X connect 79 0 47 1;
#X connect 80 0 46 1;
#X connect 80 0 45 1;
#X connect 80 0 47 1;
#X connect 81 0 46 1;
#X connect 81 0 45 1;
#X connect 81 0 47 1;
#X connect 82 0 46 1;
#X connect 82 0 45 1;
#X connect 82 0 47 1;
#X connect 83 0 46 1;
#X connect 83 0 45 1;
#X connect 83 0 47 1;
#X connect 84 0 46 1;
#X connect 84 0 45 1;
#X connect 84 0 47 1;
#X connect 85 0 46 1;
#X connect 85 0 45 1;
#X connect 85 0 47 1;
#X connect 86 0 46 1;
#X connect 86 0 45 1;
#X connect 86 0 47 1;
#X connect 87 0 46 1;
#X connect 87 0 45 1;
#X connect 87 0 47 1;
#X connect 88 0 46 1;
#X connect 88 0 45 1;
#X connect 88 0 47 1;
#X connect 89 0 90 0;
#X connect 90 0 72 0;
#X connect 90 0 74 0;
#X connect 90 0 75 0;
#X connect 90 0 139 0;
#X connect 90 1 78 0;
#X connect 91 0 92 0;
#X connect 92 0 72 0;
#X connect 92 0 74 0;
#X connect 92 0 75 0;
#X connect 92 0 139 0;
#X connect 92 1 79 0;
#X connect 93 0 94 0;
#X connect 94 0 72 0;
#X connect 94 0 74 0;
#X connect 94 0 75 0;
#X connect 94 0 139 0;
#X connect 94 1 80 0;
#X connect 95 0 96 0;
#X connect 96 0 72 0;
#X connect 96 0 74 0;
#X connect 96 0 75 0;
#X connect 96 0 139 0;
#X connect 96 1 81 0;
#X connect 97 0 98 0;
#X connect 98 0 72 0;
#X connect 98 0 74 0;
#X connect 98 0 75 0;
#X connect 98 0 139 0;
#X connect 98 1 82 0;
#X connect 99 0 100 0;
#X connect 100 0 72 0;
#X connect 100 0 74 0;
#X connect 100 0 75 0;
#X connect 100 0 139 0;
#X connect 100 1 83 0;
#X connect 101 0 102 0;
#X connect 102 0 72 0;
#X connect 102 0 74 0;
#X connect 102 0 75 0;
#X connect 102 0 139 0;
#X connect 102 1 84 0;
#X connect 103 0 104 0;
#X connect 104 0 72 0;
#X connect 104 0 74 0;
#X connect 104 0 75 0;
#X connect 104 0 139 0;
#X connect 104 1 85 0;
#X connect 105 0 106 0;
#X connect 106 0 72 0;
#X connect 106 0 74 0;
#X connect 106 0 75 0;
#X connect 106 0 139 0;
#X connect 106 1 86 0;
#X connect 107 0 108 0;
#X connect 108 0 72 0;
#X connect 108 0 74 0;
#X connect 108 0 75 0;
#X connect 108 0 139 0;
#X connect 108 1 87 0;
#X connect 109 0 110 0;
#X connect 110 0 72 0;
#X connect 110 0 74 0;
#X connect 110 0 75 0;
#X connect 110 0 139 0;
#X connect 110 1 88 0;
#X connect 111 0 112 0;
#X connect 112 0 72 0;
#X connect 112 0 73 0;
#X connect 112 0 75 0;
#X connect 112 0 139 0;
#X connect 112 1 77 0;
#X connect 113 0 114 0;
#X connect 114 0 72 0;
#X connect 114 0 73 0;
#X connect 114 0 75 0;
#X connect 114 0 139 0;
#X connect 114 1 78 0;
#X connect 115 0 116 0;
#X connect 116 0 72 0;
#X connect 116 0 73 0;
#X connect 116 0 75 0;
#X connect 116 0 139 0;
#X connect 116 1 79 0;
#X connect 117 0 118 0;
#X connect 118 0 72 0;
#X connect 118 0 73 0;
#X connect 118 0 75 0;
#X connect 118 0 139 0;
#X connect 118 1 80 0;
#X connect 119 0 120 0;
#X connect 120 0 72 0;
#X connect 120 0 73 0;
#X connect 120 0 75 0;
#X connect 120 0 139 0;
#X connect 120 1 81 0;
#X connect 121 0 122 0;
#X connect 122 0 72 0;
#X connect 122 0 73 0;
#X connect 122 0 75 0;
#X connect 122 0 139 0;
#X connect 122 1 82 0;
#X connect 123 0 124 0;
#X connect 124 0 72 0;
#X connect 124 0 73 0;
#X connect 124 0 75 0;
#X connect 124 0 139 0;
#X connect 124 1 83 0;
#X connect 125 0 126 0;
#X connect 126 0 72 0;
#X connect 126 0 73 0;
#X connect 126 0 75 0;
#X connect 126 0 139 0;
#X connect 126 1 84 0;
#X connect 127 0 128 0;
#X connect 128 0 72 0;
#X connect 128 0 73 0;
#X connect 128 0 75 0;
#X connect 128 0 139 0;
#X connect 128 1 85 0;
#X connect 129 0 130 0;
#X connect 130 0 72 0;
#X connect 130 0 73 0;
#X connect 130 0 75 0;
#X connect 130 0 139 0;
#X connect 130 1 86 0;
#X connect 131 0 132 0;
#X connect 132 0 72 0;
#X connect 132 0 73 0;
#X connect 132 0 75 0;
#X connect 132 0 139 0;
#X connect 132 1 87 0;
#X connect 133 0 134 0;
#X connect 134 0 72 0;
#X connect 134 0 73 0;
#X connect 134 0 75 0;
#X connect 134 0 139 0;
#X connect 134 1 88 0;
#X connect 135 0 0 0;
#X connect 136 0 137 1;
#X connect 137 0 146 0;
#X connect 139 0 140 0;
#X connect 140 0 138 0;
#X connect 140 1 159 0;
#X connect 141 0 136 0;
#X connect 142 0 141 0;
#X connect 144 0 136 0;
#X connect 146 0 145 0;
#X connect 147 0 148 0;
#X connect 148 0 149 0;
#X connect 149 0 146 1;
#X connect 150 0 147 0;
#X connect 151 0 3 0;
#X connect 152 0 4 0;
#X connect 153 0 7 0;
#X connect 154 0 5 0;
#X connect 155 0 38 0;
#X connect 156 0 161 0;
#X connect 157 0 1 0;
#X connect 158 0 139 1;
#X connect 160 0 144 0;
#X connect 161 0 139 0;
#X connect 164 0 162 0;
#X connect 165 0 166 0;
#X connect 166 0 22 0;
#X connect 167 0 125 0;
#X connect 168 0 111 0;
#X connect 169 0 93 0;
#X connect 170 0 91 0;
#X connect 171 0 99 0;
#X connect 172 0 107 0;
#X connect 173 0 162 0;
#X connect 174 0 163 0;
#X connect 175 0 129 0;
#X restore 22 140 pd chords;
#X obj 24 186 outlet~;
#N canvas 55 24 1311 744 lead 0;
#X obj 479 530 vcf~;
#X floatatom 892 337 5 0 0 0 - - -, f 5;
#X obj 479 549 *~;
#X floatatom 679 341 5 0 0 0 - - -, f 5;
#X floatatom 743 340 5 0 0 0 - - -, f 5;
#X floatatom 821 340 7 0 0 0 - - -, f 7;
#X obj 682 468 *~ 2000;
#X floatatom 781 340 5 0 0 0 - - -, f 5;
#X obj 682 506 +~;
#X text 765 419 Amplitude Envelop;
#X obj 657 421 adsr 2 5 30 50 10;
#X obj 682 486 *~;
#X text 775 449 Filter Envelop;
#X obj 682 449 adsr 2 5 30 0 0;
#X text 570 534 la TB303 tenía control de: - 2 formas de onda opcionales
(Saw/Square) (con 0-1) - Decay (ms) - ModEnv: en q medida la envolvente
modula el filtro - CutOff freq: freq base q se añade a la del la envolv
- Resonancia;
#X text 737 469 ponemos 2(>1) para tener + distorsión en el Attack
;
#X obj 283 395 *~, f 4;
#X obj 350 492 *~;
#X obj 449 470 line~;
#X msg 449 443 \$1 20;
#X obj 496 421 hsl 128 15 0 1 0 0 empty empty empty -2 -6 0 8 -262144
-1 -1 12700 1;
#X obj 283 317 mtof;
#X text 453 420 volume;
#X obj 283 337 phasor~;
#X obj 283 297 + 0;
#X obj 564 362 line~;
#X msg 564 335 \$1 20;
#X obj 283 357 *~ 2;
#X obj 283 376 -~ 1;
#X obj 350 515 clip~ -1 1;
#X obj 356 592 vline~;
#X obj 480 594 *~;
#X obj 186 491 switch 1;
#X obj 186 521 sel 0 1;
#X msg 305 572 1 10;
#X text 106 311 0 to sustain 1 to cut off;
#X msg 353 570 1 10 \, 0 500 200;
#X obj 482 756 outlet~;
#X obj 478 644 *~;
#X obj 647 633 / 127;
#X obj 646 670 pack 0 50;
#X obj 648 699 line~;
#X obj 135 436 \$1 1 \$0 0;
#X obj 1227 310 bng 15 250 50 0 empty empty empty 17 7 0 10 -262144
-1 -1;
#X obj 1302 311 bng 15 250 50 0 empty empty empty 17 7 0 10 -262144
-1 -1;
#X obj 1302 428 bng 15 250 50 0 analizado empty empty 17 7 0 10 -262144
-1 -1;
#X obj 1383 500 tgl 15 0 empty leadon empty 17 7 0 10 -262144 -1 -1
0 1;
#X obj 1383 564 bng 15 250 50 0 empty empty empty 17 7 0 10 -262144
-1 -1;
#X floatatom 1383 627 5 0 0 0 - - -, f 5;
#N canvas 404 120 450 300 cargarMIDI 0;
#X obj 82 28 inlet;
#X obj 159 28 inlet;
#X obj 82 97 seq;
#X obj 360 114 outlet;
#X obj 82 249 outlet;
#X obj 82 164 unpack;
#X obj 82 192 stripnote;
#X floatatom 82 222 5 0 0 0 - - -, f 5;
#X msg 159 80 start 100000;
#X obj 82 135 midiparse;
#X floatatom 133 222 5 0 0 0 - - -, f 5;
#X obj 231 114 s finReproduccion;
#X text 42 223 Pitch;
#X text 171 223 Velocity;
#X msg 84 61 read 094.MID;
#X connect 0 0 14 0;
#X connect 1 0 8 0;
#X connect 2 0 9 0;
#X connect 2 1 3 0;
#X connect 2 1 11 0;
#X connect 5 0 6 0;
#X connect 5 1 6 1;
#X connect 6 0 7 0;
#X connect 6 1 10 0;
#X connect 7 0 4 0;
#X connect 8 0 2 0;
#X connect 9 0 5 0;
#X connect 14 0 2 0;
#X restore 1227 338 pd cargarMIDI;
#N canvas 184 23 513 255 matrizMarkov 0;
#X obj 134 86 inlet;
#X msg 134 168 merge \$1 \$2;
#X msg 305 188 clear;
#X obj 134 205 coll matrizTransicion;
#C restore;
#X obj 305 78 r reiniciarMatriz;
#X floatatom 134 114 5 0 0 0 - - -, f 5;
#N canvas 613 37 358 527 analisisSegundoOrden 0;
#X obj 63 46 inlet;
#X floatatom 63 74 5 0 0 0 - - -, f 5;
#X obj 63 474 outlet;
#X obj 63 324 unpack f f f;
#X obj 63 360 pack;
#X obj 63 388 sprintf %i%i;
#X obj 63 443 pack;
#X obj 63 105 t f f b;
#X obj 102 145 f;
#X obj 102 187 t f b f;
#X obj 91 231 f;
#X obj 63 264 pack f f f;
#X msg 63 296 \$2 \$3 \$1;
#X floatatom 173 248 5 0 0 0 - - -, f 5;
#X floatatom 132 427 5 0 0 0 - - -, f 5;
#X floatatom 174 162 5 0 0 0 - - -, f 5;
#X floatatom 144 122 5 0 0 0 - - -, f 5;
#X text 143 103 Nota actual;
#X text 172 144 Nota anterior inmediata;
#X text 172 229 Nota previa a la anterior;
#X floatatom 63 417 5 0 0 0 - - -, f 5;
#X connect 0 0 1 0;
#X connect 1 0 7 0;
#X connect 3 0 4 0;
#X connect 3 1 4 1;
#X connect 3 2 14 0;
#X connect 4 0 5 0;
#X connect 5 0 20 0;
#X connect 6 0 2 0;
#X connect 7 0 11 0;
#X connect 7 1 8 1;
#X connect 7 1 16 0;
#X connect 7 2 8 0;
#X connect 8 0 9 0;
#X connect 8 0 15 0;
#X connect 9 0 10 1;
#X connect 9 1 10 0;
#X connect 9 2 11 2;
#X connect 10 0 11 1;
#X connect 10 0 13 0;
#X connect 11 0 12 0;
#X connect 12 0 3 0;
#X connect 14 0 6 1;
#X connect 20 0 6 0;
#X restore 134 140 pd analisisSegundoOrden;
#X connect 0 0 5 0;
#X connect 1 0 3 0;
#X connect 2 0 3 0;
#X connect 4 0 2 0;
#X connect 5 0 6 0;
#X connect 6 0 1 0;
#X restore 1227 381 pd matrizMarkov;
#N canvas 278 140 644 589 composicionMarkov 0;
#X obj 234 41 inlet;
#X obj 534 56 inlet;
#X floatatom 380 122 5 0 0 0 - - -, f 5;
#X obj 234 99 bng 15 250 50 0 empty empty empty 17 7 0 10 -262144 -1
-1;
#X obj 234 138 f;
#X obj 234 173 t f f;
#X obj 170 225 length;
#X obj 170 253 t b f;
#X obj 170 286 random;
#X obj 240 365 pack;
#X msg 240 406 nth \$2 \$1;
#X floatatom 552 461 5 0 0 0 - - -, f 5;
#X obj 552 499 outlet;
#X floatatom 17 41 5 0 0 0 - - -, f 5;
#X msg 143 382 \$2;
#X obj 143 475 % 100;
#X obj 219 492 pack;
#X obj 17 509 sprintf %i%i;
#X obj 380 40 r finReproduccion;
#X obj 380 97 coll matrizTransicion;
#C restore;
#X obj 234 208 coll matrizTransicion;
#C restore;
#X obj 240 444 coll matrizTransicion;
#C restore;
#X obj 170 348 + 1;
#X floatatom 170 321 5 0 0 0 - - -, f 5;
#X obj 380 73 bng 15 250 50 0 empty empty empty 17 7 0 10 -262144 -1
-1;
#X floatatom 143 529 5 0 0 0 - - -, f 5;
#X floatatom 42 399 5 0 0 0 - - -, f 5;
#X floatatom 200 406 5 0 0 0 - - -, f 5;
#X text 40 415 Notas anteriores;
#X text 181 531 Nota anterior inmediata;
#X text 550 441 Nota actual;
#X text 56 38 Nota anterior inmediata;
#X text 117 52 y nota actual;
#X msg 308 169 goto 0;
#X msg 119 277 bang;
#X msg 335 387 goto 0;
#X obj 334 348 r leadreset;
#X connect 0 0 3 0;
#X connect 1 0 24 0;
#X connect 2 0 4 1;
#X connect 3 0 4 0;
#X connect 4 0 5 0;
#X connect 5 0 20 0;
#X connect 5 1 9 1;
#X connect 6 0 7 0;
#X connect 7 0 8 0;
#X connect 7 1 8 1;
#X connect 8 0 23 0;
#X connect 9 0 10 0;
#X connect 9 0 14 0;
#X connect 9 0 27 0;
#X connect 10 0 21 0;
#X connect 11 0 12 0;
#X connect 13 0 4 1;
#X connect 14 0 15 0;
#X connect 14 0 26 0;
#X connect 15 0 16 0;
#X connect 15 0 25 0;
#X connect 16 0 17 0;
#X connect 17 0 13 0;
#X connect 18 0 24 0;
#X connect 19 0 2 0;
#X connect 20 0 6 0;
#X connect 21 0 11 0;
#X connect 21 0 16 1;
#X connect 22 0 9 0;
#X connect 23 0 22 0;
#X connect 24 0 19 0;
#X connect 24 0 13 0;
#X connect 33 0 20 0;
#X connect 34 0 8 0;
#X connect 35 0 21 0;
#X connect 36 0 35 0;
#X restore 1383 595 pd composicionMarkov;
#X obj 1383 534 metro 250;
#X text 1249 309 Cargar;
#X text 1323 310 Analizar;
#X text 1324 428 ANALIZADO!;
#X text 1407 499 ON / OFF;
#X msg 246 488 0;
#X msg 121 498 1;
#X obj 1218 632 sel 0;
#X floatatom 1146 589 5 0 0 0 - - -, f 5;
#X msg 1218 664 -100;
#X obj 562 292 r leadon;
#X obj 671 303 r lead_vel;
#X obj 742 303 r lead_dec;
#X obj 784 316 r lead_modenv;
#X obj 825 291 r lead_cut;
#X obj 901 297 r lead_res;
#X obj 138 403 r leadsuson;
#X obj 186 545 s lsus;
#X obj 226 543 s lcutt;
#X obj 305 546 r lsus;
#X obj 356 545 r lcutt;
#X obj 646 608 r leadvol;
#X obj 1495 470 r drumtemp;
#X obj 1212 562 random 6;
#X obj 1428 331 * 2;
#X obj 1450 388 sel 0 2;
#X msg 1431 437 1;
#X obj 1422 282 r lead_spd;
#X obj 1494 539 /;
#X floatatom 1490 336 5 0 0 0 - - -, f 5;
#X msg 1465 446 2;
#X obj 482 312 loadbang;
#X msg 500 355 1;
#X obj 1226 243 loadbang;
#X msg 912 175 \; lead_vel 13.07 \; lead_dec 34.65 \; lead_modenv 1
\; lead_cut 1116.5 \; lead_res 16.57 \;;
#X msg 769 143 \; lead_vel 54.16 \; lead_dec 193 \; lead_modenv 0.238
\; lead_cut 2864.08 \; lead_res 7.214 \;;
#X obj 772 75 r ltone1;
#X obj 947 86 r ltone2;
#X obj 673 91 loadbang;
#X obj 77 448 loadbang;
#X obj 1514 416 loadbang;
#X text 1225 209 Credit: Joan Carles Cardell GayaÌ€;
#X connect 0 0 2 0;
#X connect 1 0 0 2;
#X connect 2 0 31 0;
#X connect 3 0 10 0;
#X connect 3 0 13 0;
#X connect 4 0 10 3;
#X connect 4 0 13 3;
#X connect 5 0 8 1;
#X connect 6 0 11 0;
#X connect 7 0 11 1;
#X connect 8 0 0 1;
#X connect 10 0 2 1;
#X connect 11 0 8 0;
#X connect 13 0 6 0;
#X connect 16 0 17 0;
#X connect 17 0 29 0;
#X connect 18 0 17 1;
#X connect 19 0 18 0;
#X connect 20 0 19 0;
#X connect 21 0 23 0;
#X connect 23 0 27 0;
#X connect 24 0 21 0;
#X connect 25 0 16 1;
#X connect 26 0 25 0;
#X connect 27 0 28 0;
#X connect 28 0 16 0;
#X connect 29 0 0 0;
#X connect 30 0 31 1;
#X connect 31 0 38 0;
#X connect 32 0 33 0;
#X connect 33 0 69 0;
#X connect 33 1 70 0;
#X connect 34 0 30 0;
#X connect 36 0 30 0;
#X connect 38 0 37 0;
#X connect 39 0 40 0;
#X connect 40 0 41 0;
#X connect 41 0 38 1;
#X connect 42 0 32 0;
#X connect 43 0 49 0;
#X connect 44 0 49 1;
#X connect 46 0 52 0;
#X connect 47 0 51 0;
#X connect 48 0 21 0;
#X connect 49 0 50 0;
#X connect 49 1 45 0;
#X connect 51 0 48 0;
#X connect 52 0 47 0;
#X connect 52 0 75 0;
#X connect 57 0 32 1;
#X connect 58 0 32 0;
#X connect 59 0 61 0;
#X connect 60 0 59 0;
#X connect 61 0 48 0;
#X connect 62 0 26 0;
#X connect 62 0 57 0;
#X connect 63 0 3 0;
#X connect 64 0 4 0;
#X connect 65 0 7 0;
#X connect 66 0 5 0;
#X connect 67 0 1 0;
#X connect 68 0 42 0;
#X connect 71 0 34 0;
#X connect 72 0 36 0;
#X connect 73 0 39 0;
#X connect 74 0 80 0;
#X connect 75 0 59 0;
#X connect 75 0 60 0;
#X connect 76 0 77 0;
#X connect 77 0 78 0;
#X connect 77 1 82 0;
#X connect 78 0 80 1;
#X connect 79 0 76 0;
#X connect 79 0 81 0;
#X connect 80 0 52 1;
#X connect 82 0 80 1;
#X connect 83 0 84 0;
#X connect 84 0 20 0;
#X connect 85 0 43 0;
#X connect 85 0 44 0;
#X connect 88 0 87 0;
#X connect 89 0 86 0;
#X connect 90 0 87 0;
#X connect 91 0 58 0;
#X connect 92 0 78 0;
#X restore 228 141 pd lead;
#X obj 347 238 cnv 15 381 207 empty empty empty 20 12 0 14 -122311
-66577 0;
#X obj 421 275 vsl 15 128 0 500 0 0 dec decasd empty 0 -9 0 10 -262144
-1 -1 2540 1;
#X obj 463 277 vsl 15 128 0 5 0 0 modenv modenvel empty 0 -9 0 10 -262144
-1 -1 10160 1;
#X obj 502 274 vsl 15 128 0 5000 0 0 cut cutof empty 0 -9 0 10 -262144
-1 -1 5080 1;
#X obj 548 275 vsl 15 128 0 5 0 0 res reson empty 0 -9 0 10 -262144
-1 -1 254 1;
#X text 416 423 decay;
#X text 452 409 modenv;
#X text 498 428 cutoff;
#X obj 600 275 vsl 15 128 0 127 0 0 fl floyd empty 0 -9 0 10 -262144
-1 -1 4500 1;
#X text 604 414 floydfreq;
#X text 426 239 BASS ENVELOPE, f 19;
#X text 530 409 resonance;
#X obj 353 -210 cnv 15 373 206 empty empty empty 20 12 0 14 -180278
-66577 0;
#X obj 349 7 cnv 15 372 219 empty empty empty 20 12 0 14 -227265 -66577
0;
#X text 478 -76 ModEnv;
#X text 590 -74 Resonance;
#X text 431 -79 Decay;
#X obj 433 -189 vsl 20 102 0 500 0 0 ch_dec empty empty 0 -9 0 10 -262144
-1 -1 0 1;
#X obj 487 -192 vsl 19 106 0 1 0 0 ch_modenv empty empty 0 -9 0 10
-262144 -1 -1 0 1;
#X obj 541 -192 vsl 20 104 0 5000 0 0 ch_cut empty empty 0 -9 0 10
-262144 -1 -1 0 1;
#X obj 600 -192 vsl 23 106 5 20 0 0 ch_res empty empty 0 -9 0 10 -262144
-1 -1 0 1;
#X text 531 -77 CutOff;
#X text 467 152 ModEnv;
#X text 579 154 Resonance;
#X text 420 149 Decay;
#X obj 422 39 vsl 20 102 0 500 0 0 lead_dec empty empty 0 -9 0 10 -262144
-1 -1 0 1;
#X obj 476 36 vsl 19 106 0 1 0 0 lead_modenv empty empty 0 -9 0 10
-262144 -1 -1 0 1;
#X obj 530 36 vsl 20 104 0 5000 0 0 lead_cut empty empty 0 -9 0 10
-262144 -1 -1 0 1;
#X obj 589 36 vsl 23 106 5 20 0 0 lead_res empty empty 0 -9 0 10 -262144
-1 -1 0 1;
#X text 520 151 CutOff;
#X msg 0 -161 \; decasd 245.6 \; modenvel 4 \; reson 3.1 \; floyd 111
\; dis 110 \; cutof 860 \;;
#X msg 107 -178 \; bng 80 \; decasd 245.6 \; modenvel 4 \; reson 3.1
\; floyd 111 \; dis 120 \; cutof 860 \; fra 9.3 \; frr 6000 \; lcof
5000 \; shtemp 100 \;;
#X msg 254 -191 \; decasd 51.2 \; modenvel 0.8 \; reson 4.2 \; floyd
29 \; dis 136 \; cutof 1043.3 \; fra 2.065 \; lfocf 5000 \; shtemp
50 \; frr 11688 \;;
#X obj 104 -200 r tone2;
#X obj 196 -189 r tone3;
#X obj -1 -192 r tone1;
#X connect 2 0 1 0;
#X connect 5 0 6 0;
#X connect 7 0 4 0;
#X connect 41 0 39 0;
#X connect 42 0 40 0;
#X connect 43 0 38 0;
#X restore 853 618 pd Controller;
#X msg 1080 696 \; pd dsp 1 \; metro 1;
#X msg 1080 748 \; pd dsp 0 \; metro 0;
#N canvas 915 247 930 670 OSC_1 0;
#X floatatom 150 -215 5 0 0 0 - - -, f 5;
#X obj 145 -177 phasor~;
#X obj 146 -57 *~;
#X obj 149 -276 inlet;
#X text 126 -306 saw/square;
#X text 198 -283 MIDI Note;
#X obj 137 65 outlet~;
#X obj 148 -134 expr~ ($v1 > 0.5)*2-1;
#X obj 137 13 hip~;
#X text 198 36 hip filters out lower freq. for silence;
#X obj 313 -193 r bassvolume, f 11;
#X obj 320 -145 / 127;
#X obj 317 -114 pack 0 50;
#X obj 319 -84 line~;
#X obj 44 -102 osc~;
#X obj 45 -223 r octdown;
#X obj 47 -179 mtof;
#X msg 174 -20 5;
#X connect 0 0 1 0;
#X connect 1 0 7 0;
#X connect 2 0 8 0;
#X connect 3 0 0 0;
#X connect 7 0 2 0;
#X connect 8 0 6 0;
#X connect 10 0 11 0;
#X connect 11 0 12 0;
#X connect 12 0 13 0;
#X connect 13 0 2 1;
#X connect 14 0 2 0;
#X connect 15 0 16 0;
#X connect 16 0 14 0;
#X connect 17 0 8 1;
#X restore 1000 690 pd OSC_1;
#X obj 552 27 vsl 40 80 0 127 0 0 vel bng empty 0 -9 0 10 -262144 -1
-1 6220 1;
#X msg 791 651 bang;
#N canvas 537 157 1248 803 ENV_1 0;
#X floatatom 467 -375 5 0 0 0 - - -, f 5;
#X obj 66 -384 sel 0;
#X floatatom 63 -353 5 0 0 0 - - -, f 5;
#X floatatom 68 -412 5 0 0 0 - - -, f 5;
#X floatatom 106 -358 5 0 0 0 - - -, f 5;
#X floatatom 274 -376 5 0 0 0 - - -, f 5;
#X floatatom 392 -381 7 0 0 0 - - -, f 7;
#X obj 108 -241 *~ 2000;
#X floatatom 322 -377 5 0 0 0 - - -, f 5;
#X obj 108 -181 +~;
#X text 117 -424 Amplitude Envelop;
#X obj 61 -313 adsr 2 5 30 50 10;
#X obj 108 -210 *~;
#X text 194 -298 Filter Envelop;
#X obj 108 -274 adsr 2 5 30 0 0;
#X text 325 -437 ModEnv;
#X text 271 -436 Decay;
#X obj 51 -114 vcf~;
#X obj 72 -2 *~;
#X obj 72 252 outlet~;
#X obj 19 -238 inlet~;
#X obj 830 -190 *~ 2500;
#X obj 828 -240 osc~ 0.9;
#X obj 845 -150 +~ 4000;
#X floatatom 828 -278 5 0 0 0 - - -, f 5;
#X obj 860 -73 sig~;
#X obj 947 -146 metro 100;
#X obj 860 -101 snapshot~;
#X text 862 -40 Filter LFO -Sample&Hold;
#X obj 64 -50 vcf~;
#X obj 530 -239 line~;
#X obj 530 -263 pack 0 100;
#X text 566 -206 <-- Q (selectivity);
#X text 572 -314 <-- center frequency;
#X text 595 -286 at least 61;
#X obj 530 -288 max 61;
#X text 581 -241 smooth & convert to Hz.;
#X obj 529 -161 max 3;
#X text 590 -184 at least 3;
#X obj 68 -444 r vel;
#X obj 274 -409 r dec;
#X obj 325 -411 r modenv;
#X obj 400 -410 r cut;
#X obj 467 -407 r res;
#X obj 530 -342 r fl;
#X floatatom 528 -312 5 0 0 0 - - -, f 5;
#X obj 826 -318 r fra;
#X obj 910 -291 r frr;
#X obj 1074 -210 r shtemp;
#X obj 903 -217 r lfocf;
#X floatatom 889 -188 5 0 0 0 - - -, f 5;
#X obj 981 -221 r samphold;
#X text 545 -137 floyd filter;
#X obj 253 83 / 127;
#X obj 254 152 line~;
#X obj 71 150 *~;
#X obj 249 44 r amplifier;
#X obj 252 120 pack 0 20;
#X obj 530 -208 loadbang;
#X floatatom 909 -264 5 0 0 0 - - -, f 5;
#X floatatom 1039 -172 5 0 0 0 - - -, f 5;
#X floatatom 975 -186 5 0 0 0 - - -, f 5;
#X obj 72 181 *~;
#X obj 114 96 dbtorms;
#X floatatom 114 70 5 0 0 0 - - -, f 5;
#X obj 72 216 clip~ -0.5 0.5;
#X obj 114 40 r distortion;
#X msg 530 -184 2;
#X text 318 83 Amplitude Amplifier;
#X text 101 15 Distortion Level Control;
#X text 481 -68 comment;
#X text 388 -438 Cutoff Freq;
#X text 861 9 This LFO is inspired by 33_vcf_LFO_SampleHold.pd which
is provided within the contents of the course.;
#X text 623 -408 This filter is inspired by the filter used in the
song On The Run - Pink Floyd. 34_H05.filter.floyd.pd;
#X connect 0 0 17 2;
#X connect 1 0 2 0;
#X connect 1 1 4 0;
#X connect 2 0 11 0;
#X connect 2 0 14 0;
#X connect 3 0 1 0;
#X connect 4 0 11 0;
#X connect 4 0 14 0;
#X connect 5 0 14 3;
#X connect 5 0 11 3;
#X connect 6 0 9 1;
#X connect 7 0 12 0;
#X connect 8 0 12 1;
#X connect 9 0 17 1;
#X connect 11 0 18 1;
#X connect 12 0 9 0;
#X connect 14 0 7 0;
#X connect 17 0 29 0;
#X connect 18 0 55 0;
#X connect 20 0 17 0;
#X connect 21 0 23 0;
#X connect 22 0 21 0;
#X connect 23 0 27 0;
#X connect 24 0 22 0;
#X connect 25 0 17 1;
#X connect 26 0 27 0;
#X connect 27 0 25 0;
#X connect 29 0 18 0;
#X connect 30 0 17 1;
#X connect 30 0 29 1;
#X connect 31 0 30 0;
#X connect 35 0 31 0;
#X connect 37 0 17 2;
#X connect 37 0 29 2;
#X connect 39 0 3 0;
#X connect 40 0 5 0;
#X connect 41 0 8 0;
#X connect 42 0 6 0;
#X connect 43 0 0 0;
#X connect 44 0 45 0;
#X connect 45 0 35 0;
#X connect 46 0 24 0;
#X connect 47 0 59 0;
#X connect 48 0 60 0;
#X connect 49 0 50 0;
#X connect 50 0 23 1;
#X connect 51 0 61 0;
#X connect 53 0 57 0;
#X connect 54 0 55 1;
#X connect 55 0 62 0;
#X connect 56 0 53 0;
#X connect 57 0 54 0;
#X connect 58 0 67 0;
#X connect 59 0 21 1;
#X connect 60 0 26 1;
#X connect 61 0 26 0;
#X connect 62 0 65 0;
#X connect 63 0 62 1;
#X connect 64 0 63 0;
#X connect 65 0 19 0;
#X connect 66 0 64 0;
#X connect 67 0 37 0;
#X restore 1005 724 pd ENV_1;
#X text 547 120 velocity;
#X obj 405 112 tgl 36 0 samphold samplehold_tog empty 17 7 0 10 -262144
-1 -1 0 1;
#X text 448 110 TURN ON/OFF SAMPLE%HOLD, f 14;
#X obj 938 812 dac~;
#X obj 644 417 bng 25 250 50 0 stop restart_bass empty 17 7 0 10 -262144
-1 -1;
#X obj 792 679 s bng;
#N canvas 255 52 800 716 guts 0;
#N canvas 0 0 800 532 steps 0;
#X obj 540 121 table \$0-steps 8;
#X obj 130 121 r \$0-s1;
#X obj 179 121 r \$0-s2;
#X obj 234 121 r \$0-s3;
#X obj 284 121 r \$0-s4;
#X obj 333 121 r \$0-s5;
#X obj 382 121 r \$0-s6;
#X obj 437 121 r \$0-s7;
#X obj 487 121 r \$0-s8;
#X obj 234 335 pack \$0 f f f f f f f f;
#X msg 234 359 \; \$1-steps 0 \$2 \$3 \$4 \$5 \$6 \$7 \$8 \$9;
#X msg 48 280 0;
#X msg 77 279 1;
#X msg 106 280 2;
#X msg 46 305 3;
#X msg 76 304 4;
#X msg 105 305 5;
#X msg 46 328 6;
#X obj 48 225 loadbang;
#X connect 9 0 10 0;
#X connect 11 0 9 1;
#X connect 12 0 9 2;
#X connect 13 0 9 3;
#X connect 14 0 9 4;
#X connect 15 0 9 5;
#X connect 15 0 9 8;
#X connect 16 0 9 6;
#X connect 17 0 9 7;
#X connect 18 0 11 0;
#X connect 18 0 12 0;
#X connect 18 0 17 0;
#X connect 18 0 16 0;
#X connect 18 0 15 0;
#X connect 18 0 14 0;
#X connect 18 0 13 0;
#X connect 18 0 9 0;
#X restore 631 -183 pd steps;
#N canvas 0 0 800 532 rv 0;
#X obj 234 335 pack \$0 f f f f f f f f;
#X obj 130 204 t b f;
#X obj 179 205 t b f;
#X obj 234 204 t b f;
#X obj 283 205 t b f;
#X obj 333 204 t b f;
#X obj 383 205 t b f;
#X obj 438 204 t b f;
#X obj 487 205 t b f;
#X obj 544 176 table \$0-reverse 8;
#X msg 234 359 \; \$1-reverse 0 \$2 \$3 \$4 \$5 \$6 \$7 \$8 \$9;
#X obj 130 121 r \$0-r1;
#X obj 188 121 r \$0-r2;
#X obj 243 121 r \$0-r3;
#X obj 301 121 r \$0-r4;
#X obj 360 121 r \$0-r5;
#X obj 418 121 r \$0-r6;
#X obj 473 121 r \$0-r7;
#X obj 531 121 r \$0-r8;
#X connect 0 0 10 0;
#X connect 1 0 0 0;
#X connect 1 1 0 1;
#X connect 2 0 0 0;
#X connect 2 1 0 2;
#X connect 3 0 0 0;
#X connect 3 1 0 3;
#X connect 4 0 0 0;
#X connect 4 1 0 4;
#X connect 5 0 0 0;
#X connect 5 1 0 5;
#X connect 6 0 0 0;
#X connect 6 1 0 6;
#X connect 7 0 0 0;
#X connect 7 1 0 7;
#X connect 8 0 0 0;
#X connect 8 1 0 8;
#X connect 11 0 1 0;
#X connect 12 0 2 0;
#X connect 13 0 3 0;
#X connect 14 0 4 0;
#X connect 15 0 5 0;
#X connect 16 0 6 0;
#X connect 17 0 7 0;
#X connect 18 0 8 0;
#X restore 631 -163 pd rv;
#N canvas 0 0 800 532 drill 0;
#X obj 234 335 pack \$0 f f f f f f f f;
#X obj 130 204 t b f;
#X obj 179 205 t b f;
#X obj 234 204 t b f;
#X obj 283 205 t b f;
#X obj 333 204 t b f;
#X obj 383 205 t b f;
#X obj 438 204 t b f;
#X obj 487 205 t b f;
#X obj 130 121 r \$0-dr1;
#X obj 188 121 r \$0-dr2;
#X obj 243 121 r \$0-dr3;
#X obj 301 121 r \$0-dr4;
#X obj 360 121 r \$0-dr5;
#X obj 418 121 r \$0-dr6;
#X obj 473 121 r \$0-dr7;
#X obj 531 121 r \$0-dr8;
#X msg 234 359 \; \$1-drill 0 \$2 \$3 \$4 \$5 \$6 \$7 \$8 \$9;
#N canvas 0 0 450 300 (subpatch) 0;
#X array \$0-drill 8 float 3 black black;
#A 0 0 0 0 0 0 0 0 0;
#X coords 0 200 8 0 200 140 1;
#X restore 553 175 graph;
#X connect 0 0 17 0;
#X connect 1 0 0 0;
#X connect 1 1 0 1;
#X connect 2 0 0 0;
#X connect 2 1 0 2;
#X connect 3 0 0 0;
#X connect 3 1 0 3;
#X connect 4 0 0 0;
#X connect 4 1 0 4;
#X connect 5 0 0 0;
#X connect 5 1 0 5;
#X connect 6 0 0 0;
#X connect 6 1 0 6;
#X connect 7 0 0 0;
#X connect 7 1 0 7;
#X connect 8 0 0 0;
#X connect 8 1 0 8;
#X connect 9 0 1 0;
#X connect 10 0 2 0;
#X connect 11 0 3 0;
#X connect 12 0 4 0;
#X connect 13 0 5 0;
#X connect 14 0 6 0;
#X connect 15 0 7 0;
#X connect 16 0 8 0;
#X restore 631 -143 pd drill;
#X obj 36 -83 soundfiler;
#X obj 57 -56 / 44.1;
#X obj 70 -30 s \$0-dur;
#X obj 106 -66 s \$0-len;
#X obj 35 -15 pack f \$0;
#X msg 35 7 \; \$2-pos range 0 \$1;
#X obj 451 10 r \$0-len;
#X obj 507 11 r \$0-dur;
#X obj 370 -85 t b b b;
#X obj 370 8 f;
#X obj 434 40 f;
#X obj 492 43 f;
#X obj 366 196 pack f f f;
#X obj 391 111 *;
#X obj 367 268 tabread~ \$0-sample;
#X obj 391 145 +;
#X obj 366 242 line~;
#X msg 366 219 \$1 \, \$2 \$3;
#X obj 468 -113 tabread \$0-steps;
#X obj 468 -191 i;
#X obj 499 -191 + 1;
#X obj 468 -166 % 8;
#X obj 434 72 / 8;
#X obj 305 236 line;
#X obj 305 259 s \$0-pos;
#X obj 304 119 f;
#X obj 332 118 f;
#X obj 277 60 t b b;
#X obj 277 33 bng 15 250 50 0 empty empty empty 17 7 0 10 -262144 -1
-1;
#X obj 477 -83 tabread \$0-reverse;
#X obj 277 9 sel 1;
#X obj 287 -52 metro 10;
#X obj 484 -57 tabread \$0-drill;
#X obj 285 -125 sel 0;
#X msg 283 -93 1;
#X msg 311 -93 0;
#X obj 500 -35 t f f;
#X obj 370 -183 r \$0-play;
#X obj 367 337 outlet~;
#X floatatom 555 139 5 0 0 0 - - -, f 5;
#X text 514 164 tempo in ms;
#X obj 646 267 s drumtemp;
#X obj 373 303 *~;
#X obj 528 256 / 127;
#X obj 527 293 pack 0 50;
#X obj 529 322 line~;
#X obj 528 227 r drumvol;
#X obj 680 196 s countsync;
#X obj 548 77 / 4.5;
#X obj 370 -123 metro 100;
#X msg 33 -145 bang;
#X msg 35 -108 read Beats/shuffle.wav \$0-sample;
#X obj 32 -182 loadbang;
#X text 286 370 Credit: https://forum.pdpatchrepo.info/user/diplipito
;
#X connect 3 0 4 0;
#X connect 3 0 6 0;
#X connect 3 0 7 0;
#X connect 4 0 5 0;
#X connect 7 0 8 0;
#X connect 9 0 13 1;
#X connect 10 0 14 1;
#X connect 11 0 12 0;
#X connect 11 1 13 0;
#X connect 11 2 14 0;
#X connect 12 0 15 0;
#X connect 12 0 28 1;
#X connect 13 0 25 0;
#X connect 14 0 51 0;
#X connect 15 0 20 0;
#X connect 16 0 12 1;
#X connect 16 0 18 0;
#X connect 17 0 45 0;
#X connect 18 0 15 1;
#X connect 18 0 29 1;
#X connect 19 0 17 0;
#X connect 20 0 19 0;
#X connect 20 0 26 0;
#X connect 21 0 16 1;
#X connect 22 0 23 0;
#X connect 22 0 24 0;
#X connect 23 0 22 1;
#X connect 24 0 21 0;
#X connect 24 0 32 0;
#X connect 24 0 35 0;
#X connect 25 0 16 0;
#X connect 25 0 18 1;
#X connect 26 0 27 0;
#X connect 28 0 15 1;
#X connect 29 0 15 0;
#X connect 30 0 29 0;
#X connect 30 1 28 0;
#X connect 31 0 30 0;
#X connect 32 0 33 0;
#X connect 33 0 31 0;
#X connect 34 0 12 0;
#X connect 35 0 39 0;
#X connect 36 0 38 0;
#X connect 36 1 37 0;
#X connect 37 0 34 0;
#X connect 38 0 34 0;
#X connect 39 0 36 0;
#X connect 39 1 34 1;
#X connect 40 0 52 0;
#X connect 42 0 44 0;
#X connect 45 0 41 0;
#X connect 46 0 47 0;
#X connect 47 0 48 0;
#X connect 48 0 45 1;
#X connect 49 0 46 0;
#X connect 51 0 15 2;
#X connect 51 0 42 0;
#X connect 51 0 52 1;
#X connect 51 0 50 0;
#X connect 52 0 11 0;
#X connect 52 0 22 0;
#X connect 53 0 54 0;
#X connect 54 0 3 0;
#X connect 55 0 53 0;
#X restore 803 736 pd guts;
#X obj 28 51 hsl 112 66 0 96192 0 0 empty \$0-pos empty -2 -8 0 10
-262144 -1 -1 0 1;
#X obj 41 163 tgl 27 0 \$0-r1 rev1_drum empty 17 7 0 10 -262144 -1
-1 0 1;
#X obj 116 163 tgl 28 0 \$0-r2 rev2_drum empty 17 7 0 10 -262144 -1
-1 0 1;
#X obj 190 162 tgl 28 0 \$0-r3 rev3_drum empty 17 7 0 10 -262144 -1
-1 0 1;
#X obj 268 162 tgl 28 0 \$0-r5 rev5_drum empty 17 7 0 10 -262144 -1
-1 0 1;
#X obj 39 262 vsl 15 55 0 127 0 0 \$0-dr1 drum_drill1 empty 0 -9 0
10 -262144 -1 -1 0 1;
#X obj 74 291 vsl 15 55 0 127 0 0 \$0-dr2 drum_drill2 empty 0 -9 0
10 -262144 -1 -1 0 1;
#X obj 106 263 vsl 15 55 0 127 0 0 \$0-dr3 drum_drill3 empty 0 -9 0
10 -262144 -1 -1 0 1;
#X obj 138 292 vsl 15 55 0 127 0 0 \$0-dr4 drum_drill4 empty 0 -9 0
10 -262144 -1 -1 0 1;
#X obj 173 262 vsl 15 55 0 127 0 0 \$0-dr5 drum_drill5 empty 0 -9 0
10 -262144 -1 -1 0 1;
#X obj 209 292 vsl 15 55 0 127 0 0 \$0-dr6 drum_drill6 empty 0 -9 0
10 -262144 -1 -1 0 1;
#X obj 243 262 vsl 15 55 0 127 0 0 \$0-dr7 drum_drill7 empty 0 -9 0
10 -262144 -1 -1 0 1;
#X obj 278 292 vsl 15 55 0 127 0 0 \$0-dr8 \$0-drr8 empty 0 -9 0 10
-262144 -1 -1 0 1;
#X obj 228 49 tgl 27 0 \$0-play play_drums empty 66 107 0 10 -262144
-1 -1 0 1;
#X obj 399 353 vsl 40 104 0 80 0 0 amplifier bass_amp empty 0 -9 0
10 -262144 -1 -1 0 1;
#X text 399 316 BASS VOLUME, f 7;
#X text 120 422 DRUMS VOLUME;
#X text 1002 844 CONTROL PANEL;
#X obj 609 24 bng 27 250 50 0 bass1 bass_seq1 empty 17 7 0 10 -262144
-1 -1;
#X obj 608 67 bng 26 250 50 0 bass2 bass_seq2 empty 17 7 0 10 -262144
-1 -1;
#X text 647 72 Bass2 :;
#X obj 491 216 hsl 118 28 0 1 0 0 \$0-Glide gl_glide empty -2 -8 0
10 -262144 -1 -1 0 1;
#X obj 493 309 hsl 119 27 0 1 0 0 \$0-Wobble gl_wob empty -2 -8 0 10
-262144 -1 -1 0 0;
#X obj 496 258 hsl 117 31 0 1 0 0 \$0-Tone gl_tone empty -2 -8 0 10
-262144 -1 -1 0 1;
#N canvas 1214 200 483 795 glitch 0;
#X obj 73 -270 osc~;
#X obj 105 -315 *~;
#X obj 75 -305 +~;
#X obj 73 -417 / 2;
#X obj 73 131 vcf~ 2;
#X obj 277 -305 r \$0-Wobble;
#X obj 277 -265 int;
#X obj 277 -245 change -100;
#X obj 214 -63 *;
#X obj 277 -155 f;
#X msg 437 -195 4;
#X obj 277 -285 * 5.99;
#X obj 277 -225 sel 0 1 2 3 4 5;
#X obj 214 -93 / 60;
#X obj 214 -114 f;
#X msg 357 -195 2;
#X msg 397 -195 3;
#X obj 73 -437 t f f;
#X obj 73 -458 line;
#X obj 73 -478 pack f 100;
#X obj 140 -519 r \$0-Glide;
#X obj 140 -498 * 1000;
#X msg 277 -195 1;
#X msg 317 -195 1.5;
#X obj 110 -73 f;
#X obj 81 -135 spigot 1;
#X obj 214 -43 change -100;
#X obj 214 -22 t f b;
#X msg 182 -135 1;
#X msg 150 -135 0;
#X obj 81 -219 mod 8;
#X obj 81 -198 / 2;
#X obj 81 -177 int;
#X obj 81 -155 * 0.25;
#X obj 123 -397 r \$0-Tone;
#N canvas 0 22 568 311 fm-osc 0;
#X obj 20 114 * 0.5;
#X obj 20 144 osc~;
#X obj 70 144 osc~;
#X obj 140 144 osc~;
#X obj 180 144 osc~;
#X obj 140 114 * 1;
#X obj 180 114 * 2;
#X obj 220 144 osc~;
#X obj 290 144 osc~;
#X obj 340 144 osc~;
#X obj 410 144 osc~;
#X obj 480 144 osc~;
#X obj 290 114 * 4;
#X obj 480 114 * 8;
#X obj 70 114 * 1.4983;
#X obj 410 114 * 5.9932;
#X obj 340 114 * 5.0397;
#X obj 220 114 * 2.9966;
#X obj 155 32 inlet;
#X obj 220 267 outlet~;
#X obj 340 174 *~ 1;
#X obj 290 174 *~ 1;
#X obj 140 174 *~ 1;
#X obj 180 174 *~ 1;
#X obj 70 174 *~ 2;
#X obj 20 174 *~ 2;
#X obj 220 174 *~ 1;
#X obj 155 53 t f f f f f f f f f;
#X obj 480 174 *~ 0.2;
#X obj 410 174 *~ 0.2;
#X obj 220 224 *~ 0.1;
#X connect 0 0 1 0;
#X connect 1 0 25 0;
#X connect 2 0 24 0;
#X connect 3 0 22 0;
#X connect 4 0 23 0;
#X connect 5 0 3 0;
#X connect 6 0 4 0;
#X connect 7 0 26 0;
#X connect 8 0 21 0;
#X connect 9 0 20 0;
#X connect 10 0 29 0;
#X connect 11 0 28 0;
#X connect 12 0 8 0;
#X connect 13 0 11 0;
#X connect 14 0 2 0;
#X connect 15 0 10 0;
#X connect 16 0 9 0;
#X connect 17 0 7 0;
#X connect 18 0 27 0;
#X connect 20 0 30 0;
#X connect 22 0 30 0;
#X connect 25 0 30 0;
#X connect 27 0 0 0;
#X connect 27 1 14 0;
#X connect 27 2 5 0;
#X connect 27 3 6 0;
#X connect 27 4 17 0;
#X connect 27 5 12 0;
#X connect 27 6 16 0;
#X connect 27 7 15 0;
#X connect 27 8 13 0;
#X connect 30 0 19 0;
#X restore 105 -417 pd fm-osc;
#X obj 277 -135 t b b b f;
#X obj 123 -355 + 100;
#X obj 67 -610 inlet;
#X obj 78 254 *~;
#X obj 92 224 lop~ 10;
#X obj 110 -52 phasor~;
#X obj 110 -31 *~ 2;
#X obj 110 -1 max~ 1;
#X obj 160 0 min~ 1;
#X obj 92 -95 sig~ 1;
#X obj 92 26 -~;
#X obj 92 47 *~ 2;
#X obj 92 68 -~ 1;
#X obj 92 89 *~ 490;
#X obj 92 110 +~ 490;
#X obj 81 -115 t b b;
#X floatatom 68 -579 5 0 0 0 - - -, f 5;
#X obj 75 -506 mtof;
#X msg 216 -160 120;
#X obj 76 293 outlet~;
#X obj 173 72 r gvol;
#X obj 176 106 / 127;
#X obj 154 138 pack 0 50;
#X obj 103 194 line~;
#X obj 254 118 r gturn;
#X obj 255 143 \$1 100;
#X obj 123 -376 * 10000;
#X obj 217 -196 r start;
#X obj 98 -246 r countsync;
#X obj 123 -333 lop~ 0.5;
#X obj 75 -541 - 60;
#X connect 0 0 4 0;
#X connect 1 0 2 1;
#X connect 2 0 0 0;
#X connect 3 0 2 0;
#X connect 4 0 39 0;
#X connect 5 0 11 0;
#X connect 6 0 7 0;
#X connect 7 0 12 0;
#X connect 8 0 26 0;
#X connect 9 0 36 0;
#X connect 10 0 9 0;
#X connect 11 0 6 0;
#X connect 12 0 22 0;
#X connect 12 1 23 0;
#X connect 12 2 15 0;
#X connect 12 3 16 0;
#X connect 12 4 10 0;
#X connect 13 0 8 0;
#X connect 14 0 13 0;
#X connect 15 0 9 0;
#X connect 16 0 9 0;
#X connect 17 0 3 0;
#X connect 17 1 35 0;
#X connect 18 0 17 0;
#X connect 19 0 18 0;
#X connect 20 0 21 0;
#X connect 21 0 19 1;
#X connect 22 0 9 0;
#X connect 23 0 9 0;
#X connect 24 0 41 0;
#X connect 25 0 51 0;
#X connect 26 0 27 0;
#X connect 27 0 24 1;
#X connect 27 1 28 0;
#X connect 28 0 25 1;
#X connect 29 0 25 1;
#X connect 30 0 31 0;
#X connect 31 0 32 0;
#X connect 32 0 33 0;
#X connect 33 0 25 0;
#X connect 34 0 62 0;
#X connect 35 0 1 0;
#X connect 36 2 8 0;
#X connect 36 3 8 1;
#X connect 37 0 65 0;
#X connect 38 0 52 0;
#X connect 39 0 55 0;
#X connect 40 0 39 1;
#X connect 41 0 42 0;
#X connect 42 0 43 0;
#X connect 42 0 44 0;
#X connect 43 0 46 1;
#X connect 44 0 47 0;
#X connect 45 0 46 0;
#X connect 46 0 47 0;
#X connect 47 0 48 0;
#X connect 48 0 49 0;
#X connect 49 0 50 0;
#X connect 50 0 4 1;
#X connect 51 0 29 0;
#X connect 51 1 24 0;
#X connect 52 0 66 0;
#X connect 53 0 19 0;
#X connect 54 0 14 0;
#X connect 56 0 57 0;
#X connect 57 0 58 0;
#X connect 58 0 59 0;
#X connect 59 0 40 0;
#X connect 60 0 61 0;
#X connect 61 0 59 0;
#X connect 62 0 37 0;
#X connect 63 0 54 0;
#X connect 64 0 30 0;
#X connect 65 0 1 1;
#X connect 66 0 53 0;
#X restore 839 684 pd glitch;
#X text 450 311 wobble;
#X text 448 283 tone;
#X text 450 243 glide;
#X obj 540 345 tgl 45 0 gturn wobble_bass empty 17 7 0 10 -262144 -1
-1 0 1;
#X text 396 470 AMPLIFIER;
#X obj 397 198 vsl 37 113 0 127 0 0 bassvolume bass_vol empty 0 -9
0 10 -262144 -1 -1 0 1;
#X obj 639 231 vsl 38 96 0 127 0 0 gvol gturn empty 0 -9 0 10 -262144
-1 -1 0 1;
#X text 621 349 glitch volume;
#X text 485 358 WOBBLE!;
#X text 1080 669 DSP ON/OFF;
#X text 978 656 Bass Sequencer;
#X text 1005 748 Envelope;
#X text 842 705 Glitch patch;
#X obj 49 833 vsl 35 117 0 130 0 0 chordvol chord_vol empty 0 -9 0
10 -262144 -1 -1 0 1;
#X text 30 967 CHORDS VOLUME;
#X obj 38 621 vsl 35 120 0 127 0 0 ch_vel chord_vel empty 0 -9 0 10
-262144 -1 -1 0 1;
#X text 34 758 Velocity;
#X obj 245 914 tgl 42 0 chon chord_onoff empty 17 7 0 10 -262144 -1
-1 0 1;
#X text 225 880 CHORDS ON/OFF;
#X obj 146 912 tgl 44 0 suson chord_sustain empty 17 7 0 10 -262144
-1 -1 0 1;
#X text 115 882 SUSTAIN ON/OFF;
#X obj 608 111 bng 27 250 50 0 bass3 bass_seq3 empty 17 7 0 10 -262144
-1 -1;
#X obj 610 158 bng 25 250 50 0 bass4 bass_seq4 empty 17 7 0 10 -262144
-1 -1;
#X obj 559 409 tgl 29 0 onoff startstop_bass empty 17 7 0 10 -262144
-1 -1 0 1;
#X obj 492 409 tgl 31 0 doublenote doublenote_bass empty 17 7 0 10
-262144 -1 -1 0 1;
#X text 616 446 restart loop;
#X text 495 180 distortion;
#X obj 797 809 loadbang;
#X obj 422 657 vsl 34 107 0 127 0 0 lead_vel lead_velbar empty 0 -9
0 10 -262144 -1 -1 0 1;
#X text 414 795 Velocity;
#X obj 641 850 tgl 29 0 leadon lead_onoff empty 17 7 0 10 -262144 -1
-1 0 1;
#X obj 420 824 vsl 42 114 0 80 0 0 leadvol lead_volbar empty 0 -9 0
10 -262144 -1 -1 0 1;
#X obj 512 818 tgl 59 0 lead_spd lead_speedup empty 17 7 0 10 -262144
-1 -1 0 1;
#X text 499 889 SPEED UP ON/OFF;
#X text 621 829 LEAD ON/OFF;
#X text 632 714 RESET;
#X obj 631 738 bng 39 250 50 0 leadreset lead_reset empty 17 7 0 10
-262144 -1 -1;
#X text 406 958 LEAD VOLUME;
#X obj 402 40 bng 35 250 50 0 tone1 bass_tone1 empty 17 7 0 10 -262144
-1 -1;
#X obj 451 39 bng 30 250 50 0 tone2 bass_tone2 empty 17 7 0 10 -262144
-1 -1;
#X obj 499 39 bng 37 250 50 0 tone3 bass_tone3 empty 17 7 0 10 -262144
-1 -1;
#X text 502 80 tone 3;
#X text 401 82 tone 1;
#X text 450 78 tone 2;
#X text 647 33 Bass1 :;
#X obj 112 654 bng 27 250 50 0 gm chord_1 empty 17 7 0 10 -262144 -1
-1;
#X obj 180 653 bng 28 250 50 0 cm chord_3 empty 17 7 0 10 -262144 -1
-1;
#X obj 260 651 bng 28 250 50 0 dmaj chord_6 empty 17 7 0 10 -262144
-1 -1;
#X obj 259 589 bng 25 250 50 0 fsharp chord_5 empty 17 7 0 10 -262144
-1 -1;
#X obj 180 724 bng 25 250 50 0 asharp chord_4 empty 17 7 0 10 -262144
-1 -1;
#X obj 183 590 bng 24 250 50 0 dsharp chord_2 empty 17 7 0 10 -262144
-1 -1;
#X text 117 622 Gm;
#X text 183 622 Cm;
#X text 183 560 D#;
#X text 268 623 D;
#X text 183 697 A#;
#X text 263 559 F#;
#X obj 121 808 bng 40 250 50 0 chtone1 chord_tone1 empty 17 7 0 10
-262144 -1 -1;
#X obj 194 808 bng 37 250 50 0 chtone2 chord_tone2 empty 17 7 0 10
-262144 -1 -1;
#X text 125 780 tone1;
#X text 194 776 tone2;
#X obj 485 564 bng 41 250 50 0 ltone1 lead_tone1 empty 17 7 0 10 -262144
-1 -1;
#X obj 575 566 bng 39 250 50 0 ltone2 lead_tone2 empty 17 7 0 10 -262144
-1 -1;
#X text 473 618 tone 1;
#X text 578 615 tone 2;
#X msg 797 838 \; bng 100 \; decasd 100 \; modenvel 4 \; reson 0.1
\; floyd 45 \; dis 110 \; cutof 2000 \;, f 14;
#X obj 455 149 hsl 122 30 80 180 0 0 distortion dis empty -2 -8 0 10
-262144 -1 -1 3630 1;
#X obj 258 724 bng 25 250 50 0 aminor chord_7 empty 17 7 0 10 -262144
-1 -1;
#X text 262 692 Am;
#X obj 65 391 hsl 188 25 0 127 0 0 drumvol drum_vol empty -2 -8 0 10
-262144 -1 -1 0 1;
#X text 643 122 Bass 3 :;
#X text 644 159 Bass 4 :;
#X text 147 75 POSITION;
#X text 227 80 Play;
#X text 19 194 Reverse Pos#1;
#X text 89 142 Reverse Pos#2;
#X text 166 193 Reverse Pos#3;
#X text 241 141 Reverse Pos#4;
#X text 143 235 DRILLS;
#X text 29 324 Pos#1;
#X text 234 323 Pos#1;
#X text 65 353 Pos#2;
#X text 99 324 Pos#3;
#X text 129 354 Pos#4;
#X text 165 324 Pos#5;
#X text 200 354 Pos#6;
#X text 234 323 Pos#7;
#X text 270 353 Pos#8;
#N canvas 0 0 450 300 (subpatch) 0;
#X array \$0-sample 96192 float 2 black black;
#X coords 0 1 96192 -1 116 68 1;
#X restore 30 50 graph;
#X text 776 46 1 - From Control Panel \, activate DSP by clicking the
button below 'DSP ON/OFF'.;
#X text 776 83 2 - Increase Drums Volume. Push 'Play' button to initialize
drum machine.;
#X text 780 13 DIRECTIONS to INITIALIZE:;
#X text 557 440 START/STOP Tempo, f 6;
#X text 492 446 double tempo, f 10;
#X text 778 122 3 - Push START/STOP Tempo button. Choose one bass pattern
from upperleft part. Increase Bass Volume and Amplifier for the bass
part. Push 'restart loop' button to get in-sync with the rhythm section.
Listen the drums carefully!;
#X text 110 560 TONIC;
#X text 161 527 Median / Sub-dominant, f 15;
#X text 249 531 Dominant / Leading Tone, f 16;
#X text 780 187 4 - Push Chords ON/OFF and Increase the sliders in
the lower left part to hear the chords. Play the chords!;
#X text 780 231 5 - Push Lead ON/OFF to hear the solo performer. Increase
th e sliders to hear the sound. Push 'Speed Up ON/OFF' to switch between
one quarter / one eighth length notes.;
#X connect 6 0 16 0;
#X connect 6 0 16 1;
#X connect 6 1 11 0;
#X connect 6 1 44 0;
#X connect 6 1 9 0;
#X connect 6 2 16 0;
#X connect 6 2 16 1;
#X connect 9 0 12 0;
#X connect 11 0 18 0;
#X connect 12 0 16 0;
#X connect 12 0 16 1;
#X connect 19 0 16 0;
#X connect 19 0 16 1;
#X connect 44 0 16 0;
#X connect 72 0 110 0;
