#N canvas 895 339 471 357 10;
#X obj -27 -124 dumpOSC 1337;
#X obj -26 -100 OSCroute /mrmr;
#X obj 140 -29 OSCroute /tactilezoneX /tactilezoneY;
#X obj -25 -76 OSCroute /pushbutton /slider;
#N canvas 192 95 988 467 button 0;
#X obj 12 7 inlet;
#X obj 12 98 unpack s f;
#X obj 13 126 sel 0 1000;
#X msg 43 153 1;
#X msg 12 153 0;
#X obj 81 98 unpack s f;
#X obj 82 126 sel 0 1000;
#X msg 112 153 1;
#X msg 81 153 0;
#X obj 157 95 s lfo1;
#X obj 157 114 s lfo2;
#X obj 157 134 s lfo3;
#X obj 157 152 s lfo4;
#X obj 199 95 s lfo5;
#X obj 199 114 s lfo6;
#X obj 199 133 s lfo7;
#X obj 199 152 s lfo8;
#X obj 241 95 s lfo9;
#X obj 241 114 s lfo10;
#X obj 241 133 s lfo11;
#X obj 241 152 s lfo12;
#X obj 159 181 unpack s f;
#X obj 160 209 sel 0 1000;
#X msg 190 236 1;
#X msg 159 236 0;
#X obj 159 259 s wobb;
#X obj 402 152 s rht1;
#X obj 451 95 s rht2;
#X obj 451 115 s rht3;
#X obj 451 133 s saws;
#X obj 451 152 s tone1s;
#X obj 505 95 s tone2s;
#X obj 505 114 s tunes;
#X obj 505 133 s det1s;
#X obj 505 152 s det2s;
#X obj 741 94 unpack s f;
#X obj 742 122 sel 0 1000;
#X msg 772 149 1;
#X msg 741 149 0;
#X obj 713 203 unpack s f;
#X obj 714 231 sel 0 1000;
#X msg 744 258 1;
#X msg 713 258 0;
#X obj 741 176 s chor_o;
#X obj 715 291 s chor_s;
#X obj 293 96 s bass_1;
#X obj 293 116 s bass_2;
#X obj 293 135 s bass_3;
#X obj 347 96 s bass_4;
#X obj 347 116 s bass_5;
#X obj 347 134 s bass_6;
#X obj 561 97 s chord_1;
#X obj 561 117 s chord_2;
#X obj 622 97 s chord_3;
#X obj 622 116 s chord_4;
#X obj 11 179 s rev_1;
#X obj 81 181 s rev_2;
#X obj 12 225 s drum_1;
#X obj 67 225 s drum_2;
#X obj 11 245 s drum_3;
#X obj 66 245 s drum_4;
#X obj 11 265 s drum_5;
#X obj 66 265 s drum_6;
#X obj 600 197 unpack s f;
#X obj 601 225 sel 0 1000;
#X msg 631 252 1;
#X msg 600 252 0;
#X obj 600 275 s play_d;
#X obj 506 196 unpack s f;
#X obj 507 224 sel 0 1000;
#X msg 537 251 1;
#X msg 506 251 0;
#X obj 506 274 s lfo_p;
#X obj 402 95 s start_c;
#X obj 402 115 s stop_c;
#X obj 402 134 s hold_c;
#X obj 12 31 OSCroute /14 /16 /6 /5 /3 /2 /1 /13 /4 /40 /30 /28 /29
/31 /32 /33 /39 /34 /35 /36 /38 /37 /42 /43 /44 /45 /46 /47 /48 /51
/58 /52 /49 /53 /59 /55 /56 /60 /57 /61 /67 /62 /66 /63 /70 /65 /17
/41;
#X connect 0 0 76 0;
#X connect 1 1 2 0;
#X connect 2 0 4 0;
#X connect 2 1 3 0;
#X connect 3 0 55 0;
#X connect 4 0 55 0;
#X connect 5 1 6 0;
#X connect 6 0 8 0;
#X connect 6 1 7 0;
#X connect 7 0 56 0;
#X connect 8 0 56 0;
#X connect 21 1 22 0;
#X connect 22 0 24 0;
#X connect 22 1 23 0;
#X connect 23 0 25 0;
#X connect 24 0 25 0;
#X connect 35 0 36 0;
#X connect 35 1 36 0;
#X connect 36 0 38 0;
#X connect 36 1 37 0;
#X connect 37 0 43 0;
#X connect 38 0 43 0;
#X connect 39 1 40 0;
#X connect 40 0 42 0;
#X connect 40 1 41 0;
#X connect 41 0 44 0;
#X connect 42 0 44 0;
#X connect 63 1 64 0;
#X connect 64 0 66 0;
#X connect 64 1 65 0;
#X connect 65 0 67 0;
#X connect 66 0 67 0;
#X connect 68 1 69 0;
#X connect 69 0 71 0;
#X connect 69 1 70 0;
#X connect 70 0 72 0;
#X connect 71 0 72 0;
#X connect 76 0 1 0;
#X connect 76 1 5 0;
#X connect 76 2 57 0;
#X connect 76 3 58 0;
#X connect 76 4 59 0;
#X connect 76 5 60 0;
#X connect 76 6 61 0;
#X connect 76 7 62 0;
#X connect 76 9 21 0;
#X connect 76 10 9 0;
#X connect 76 11 10 0;
#X connect 76 12 11 0;
#X connect 76 13 12 0;
#X connect 76 14 13 0;
#X connect 76 15 14 0;
#X connect 76 16 15 0;
#X connect 76 17 16 0;
#X connect 76 18 17 0;
#X connect 76 19 18 0;
#X connect 76 20 19 0;
#X connect 76 21 20 0;
#X connect 76 22 45 0;
#X connect 76 23 46 0;
#X connect 76 24 47 0;
#X connect 76 25 48 0;
#X connect 76 26 49 0;
#X connect 76 27 50 0;
#X connect 76 28 73 0;
#X connect 76 29 74 0;
#X connect 76 30 75 0;
#X connect 76 31 26 0;
#X connect 76 32 27 0;
#X connect 76 33 28 0;
#X connect 76 34 29 0;
#X connect 76 35 30 0;
#X connect 76 36 31 0;
#X connect 76 37 32 0;
#X connect 76 38 33 0;
#X connect 76 39 34 0;
#X connect 76 40 51 0;
#X connect 76 41 52 0;
#X connect 76 42 53 0;
#X connect 76 43 54 0;
#X connect 76 44 35 0;
#X connect 76 45 39 0;
#X connect 76 46 63 0;
#X connect 76 47 68 0;
#X restore 49 94 pd button;
#N canvas 57 288 462 336 tactileX 0;
#X obj 69 4 inlet;
#X obj 222 121 s2l;
#X msg 235 98 symbol /;
#X obj 222 68 unpack s f;
#X obj 224 142 unpack f s;
#X obj 220 224 pack f f;
#X obj 152 72 loadbang;
#X obj 173 48 print;
#X obj 64 111 s2l;
#X msg 77 88 symbol /;
#X obj 64 58 unpack s f;
#X obj 66 132 unpack f s;
#X obj 62 214 pack f f;
#X msg 63 238 \; tacx-\$1 \$2;
#X obj 224 13 inlet;
#X msg 221 248 \; tacy-\$1 \$2;
#X connect 0 0 10 0;
#X connect 1 0 4 0;
#X connect 2 0 1 1;
#X connect 3 0 1 0;
#X connect 3 1 5 1;
#X connect 4 0 5 0;
#X connect 5 0 15 0;
#X connect 6 0 2 0;
#X connect 6 0 9 0;
#X connect 8 0 11 0;
#X connect 9 0 8 1;
#X connect 10 0 8 0;
#X connect 10 1 12 1;
#X connect 11 0 12 0;
#X connect 12 0 13 0;
#X connect 14 0 3 0;
#X restore 140 -4 pd tactileX;
#N canvas 364 260 992 444 slider 0;
#X obj 14 6 inlet;
#X obj 14 26 OSCroute /horizontal /vertical;
#X obj 15 190 unpack s f;
#X obj 16 215 / 10;
#X obj 15 235 s drum_v;
#X obj 83 189 unpack s f;
#X obj 83 209 / 1000;
#X obj 83 229 * 127;
#X obj 83 249 s dr1;
#X obj 150 189 unpack s f;
#X obj 150 209 / 1000;
#X obj 150 229 * 127;
#X obj 216 189 unpack s f;
#X obj 216 209 / 1000;
#X obj 216 229 * 127;
#X obj 282 189 unpack s f;
#X obj 283 209 / 1000;
#X obj 283 229 * 127;
#X obj 83 269 unpack s f;
#X obj 83 289 / 1000;
#X obj 83 309 * 127;
#X obj 150 269 unpack s f;
#X obj 150 289 / 1000;
#X obj 150 309 * 127;
#X obj 216 269 unpack s f;
#X obj 216 289 / 1000;
#X obj 216 309 * 127;
#X obj 283 269 unpack s f;
#X obj 283 289 / 1000;
#X obj 283 309 * 127;
#X obj 150 249 s dr2;
#X obj 216 249 s dr3;
#X obj 283 249 s dr4;
#X obj 83 329 s dr5;
#X obj 150 329 s dr6;
#X obj 216 329 s dr7;
#X obj 283 329 s velb;
#X obj 351 190 unpack s f;
#X obj 350 209 / 1000;
#X obj 416 189 unpack s f;
#X obj 416 209 / 1000;
#X obj 483 189 unpack s f;
#X obj 483 209 / 1000;
#X obj 483 229 * 127;
#X obj 350 269 unpack s f;
#X obj 350 289 / 1000;
#X obj 416 269 unpack s f;
#X obj 416 289 / 1000;
#X obj 483 269 unpack s f;
#X obj 483 289 / 1000;
#X obj 350 249 s decb;
#X obj 350 328 s modb;
#X obj 416 249 s cutb;
#X obj 416 329 s resb;
#X obj 483 249 s pinkb;
#X obj 350 229 * 500;
#X obj 350 309 * 5;
#X obj 416 229 * 5000;
#X obj 416 309 * 5;
#X obj 483 330 s glw;
#X obj 552 189 unpack s f;
#X obj 552 209 / 1000;
#X obj 619 189 unpack s f;
#X obj 619 209 / 1000;
#X obj 619 229 * 127;
#X obj 552 269 unpack s f;
#X obj 552 289 / 1000;
#X obj 619 269 unpack s f;
#X obj 619 289 / 1000;
#X obj 552 249 s tonew;
#X obj 552 328 s wobw;
#X obj 619 249 s glvw;
#X obj 483 309 * 1;
#X obj 552 229 * 1;
#X obj 552 309 * 1;
#X obj 686 190 unpack s f;
#X obj 686 210 / 1000;
#X obj 686 230 * 127;
#X obj 686 270 unpack s f;
#X obj 686 290 / 1000;
#X obj 686 310 * 127;
#X obj 753 270 unpack s f;
#X obj 753 290 / 1000;
#X obj 619 330 s temp;
#X obj 619 309 * 500;
#X obj 686 250 s advs;
#X obj 820 191 unpack s f;
#X obj 820 211 / 1000;
#X obj 686 330 s chor_v;
#X obj 753 330 s cutc;
#X obj 820 251 s resc;
#X obj 753 310 * 5000;
#X obj 820 231 * 5;
#X obj 822 272 unpack s f;
#X obj 822 292 / 1000;
#X obj 822 332 s bass_v;
#X obj 822 312 * 127;
#X obj 753 191 unpack s f;
#X obj 753 211 / 1000;
#X obj 753 231 * 20;
#X obj 753 251 s amp_v;
#X obj 59 60 OSCroute /15 /0 /7 /8 /9 /10 /11 /12 /18 /19 /20 /21 /22
/23 /24 /25 /26 /27 /50 /54 /68 /69 /64 /71 /72 /73, f 116;
#X obj 893 193 unpack s f;
#X obj 893 213 / 1000;
#X obj 893 253 s velc;
#X obj 893 233 * 127;
#X connect 0 0 1 0;
#X connect 1 0 101 0;
#X connect 2 1 3 0;
#X connect 3 0 4 0;
#X connect 5 1 6 0;
#X connect 6 0 7 0;
#X connect 7 0 8 0;
#X connect 9 1 10 0;
#X connect 10 0 11 0;
#X connect 11 0 30 0;
#X connect 12 1 13 0;
#X connect 13 0 14 0;
#X connect 14 0 31 0;
#X connect 15 1 16 0;
#X connect 16 0 17 0;
#X connect 17 0 32 0;
#X connect 18 1 19 0;
#X connect 19 0 20 0;
#X connect 20 0 33 0;
#X connect 21 1 22 0;
#X connect 22 0 23 0;
#X connect 23 0 34 0;
#X connect 24 1 25 0;
#X connect 25 0 26 0;
#X connect 26 0 35 0;
#X connect 27 1 28 0;
#X connect 28 0 29 0;
#X connect 29 0 36 0;
#X connect 37 1 38 0;
#X connect 38 0 55 0;
#X connect 39 1 40 0;
#X connect 40 0 57 0;
#X connect 41 1 42 0;
#X connect 42 0 43 0;
#X connect 43 0 54 0;
#X connect 44 1 45 0;
#X connect 45 0 56 0;
#X connect 46 1 47 0;
#X connect 47 0 58 0;
#X connect 48 1 49 0;
#X connect 49 0 72 0;
#X connect 55 0 50 0;
#X connect 56 0 51 0;
#X connect 57 0 52 0;
#X connect 58 0 53 0;
#X connect 60 1 61 0;
#X connect 61 0 73 0;
#X connect 62 1 63 0;
#X connect 63 0 64 0;
#X connect 64 0 71 0;
#X connect 65 1 66 0;
#X connect 66 0 74 0;
#X connect 67 1 68 0;
#X connect 68 0 84 0;
#X connect 72 0 59 0;
#X connect 73 0 69 0;
#X connect 74 0 70 0;
#X connect 75 1 76 0;
#X connect 76 0 77 0;
#X connect 77 0 85 0;
#X connect 78 1 79 0;
#X connect 79 0 80 0;
#X connect 80 0 88 0;
#X connect 81 1 82 0;
#X connect 82 0 91 0;
#X connect 84 0 83 0;
#X connect 86 1 87 0;
#X connect 87 0 92 0;
#X connect 91 0 89 0;
#X connect 92 0 90 0;
#X connect 93 1 94 0;
#X connect 94 0 96 0;
#X connect 96 0 95 0;
#X connect 97 1 98 0;
#X connect 98 0 99 0;
#X connect 99 0 100 0;
#X connect 101 0 2 0;
#X connect 101 1 5 0;
#X connect 101 2 9 0;
#X connect 101 3 12 0;
#X connect 101 4 15 0;
#X connect 101 5 18 0;
#X connect 101 6 21 0;
#X connect 101 7 24 0;
#X connect 101 8 27 0;
#X connect 101 9 37 0;
#X connect 101 10 44 0;
#X connect 101 11 39 0;
#X connect 101 12 46 0;
#X connect 101 13 41 0;
#X connect 101 14 48 0;
#X connect 101 15 60 0;
#X connect 101 16 65 0;
#X connect 101 17 62 0;
#X connect 101 18 67 0;
#X connect 101 19 75 0;
#X connect 101 20 78 0;
#X connect 101 21 81 0;
#X connect 101 22 86 0;
#X connect 101 23 93 0;
#X connect 101 24 97 0;
#X connect 101 25 102 0;
#X connect 102 1 103 0;
#X connect 103 0 105 0;
#X connect 105 0 104 0;
#X restore 152 95 pd slider;
#N canvas 0 22 766 617 accel 0;
#X obj 154 334 s2l;
#X msg 167 311 symbol /;
#X obj 154 281 unpack s f;
#X obj 156 355 unpack f s;
#X obj 152 437 pack f f;
#X obj 185 179 inlet;
#X obj 312 255 loadbang;
#X obj 268 324 s2l;
#X msg 281 301 symbol /;
#X obj 268 271 unpack s f;
#X obj 270 345 unpack f s;
#X obj 266 427 pack f f;
#X obj 173 232 OSCroute /accelerometerX /accelerometerY /accelerometerZ
;
#X obj 507 256 outlet;
#X msg 152 461 \; acclx-\$1 \$2;
#X msg 266 451 \; accly-\$1 \$2;
#X obj 394 318 s2l;
#X msg 407 295 symbol /;
#X obj 394 265 unpack s f;
#X obj 395 347 unpack f s;
#X obj 392 421 pack f f;
#X msg 392 445 \; acclz-\$1 \$2;
#X obj 540 309 print;
#X connect 0 0 3 0;
#X connect 1 0 0 1;
#X connect 2 0 0 0;
#X connect 2 1 4 1;
#X connect 3 0 4 0;
#X connect 4 0 14 0;
#X connect 5 0 12 0;
#X connect 6 0 1 0;
#X connect 6 0 8 0;
#X connect 6 0 17 0;
#X connect 7 0 10 0;
#X connect 8 0 7 1;
#X connect 9 0 7 0;
#X connect 9 1 11 1;
#X connect 10 0 11 0;
#X connect 11 0 15 0;
#X connect 12 0 2 0;
#X connect 12 1 9 0;
#X connect 12 2 18 0;
#X connect 12 3 13 0;
#X connect 16 0 19 0;
#X connect 17 0 16 1;
#X connect 18 0 16 0;
#X connect 18 1 20 1;
#X connect 19 0 20 0;
#X connect 20 0 21 0;
#X restore 140 -51 pd accel;
#X text 39 -156 Your Port goes here V;
#X obj 6 -18 print;
#N canvas 81 142 1173 467 button_new 0;
#X obj 12 7 inlet;
#X obj 12 31 OSCroute /0 /1 /2 /3 /4 /13 /14 /15 /17 /18 /19 /20 /21
/28 /29 /30 /31 /32 /36 /37 /38 /39 /40 /41 /42 /43 /44 /45 /46 /48
/49 /50 /51 /52, f 150;
#X obj 10 83 unpack s f;
#X obj 11 111 sel 0 1000;
#X msg 41 138 1;
#X msg 10 138 0;
#X obj 9 164 s play_drums;
#X obj 92 87 unpack s f;
#X obj 93 115 sel 0 1000;
#X msg 123 142 1;
#X msg 92 142 0;
#X obj 91 168 s rev1_drum;
#X obj 169 92 unpack s f;
#X obj 170 120 sel 0 1000;
#X msg 200 147 1;
#X msg 169 147 0;
#X obj 168 173 s rev2_drum;
#X obj 15 198 unpack s f;
#X obj 16 226 sel 0 1000;
#X msg 46 253 1;
#X msg 15 253 0;
#X obj 14 279 s rev3_drum;
#X obj 105 199 unpack s f;
#X obj 106 227 sel 0 1000;
#X msg 136 254 1;
#X msg 105 254 0;
#X obj 104 280 s rev5_drum;
#X obj 245 91 s bass_tone1;
#X obj 249 113 s bass_tone2;
#X obj 249 139 s bass_tone3;
#X obj 342 90 s bass_seq1;
#X obj 343 113 s bass_seq2;
#X obj 422 95 unpack s f;
#X obj 423 123 sel 0 1000;
#X msg 453 150 1;
#X msg 422 150 0;
#X obj 421 176 s samplehold_tog;
#X obj 534 99 unpack s f;
#X obj 535 127 sel 0 1000;
#X msg 565 154 1;
#X msg 534 154 0;
#X obj 420 206 unpack s f;
#X obj 421 234 sel 0 1000;
#X msg 451 261 1;
#X msg 420 261 0;
#X obj 532 210 unpack s f;
#X obj 533 238 sel 0 1000;
#X msg 563 265 1;
#X msg 532 265 0;
#X obj 533 180 s doublenote_bass;
#X obj 419 287 s startstop_bass;
#X obj 531 291 s wobble_bass;
#X obj 614 98 s restart_bass;
#X obj 615 121 s start_bass;
#X obj 645 152 s chord_tone1;
#X obj 646 175 s chord_tone2;
#X obj 738 102 unpack s f;
#X obj 739 130 sel 0 1000;
#X msg 769 157 1;
#X msg 738 157 0;
#X obj 736 213 unpack s f;
#X obj 737 241 sel 0 1000;
#X msg 767 268 1;
#X msg 736 268 0;
#X obj 737 183 s chord_onoff;
#X obj 735 299 s chord_sustain;
#X obj 830 99 s chord_1;
#X obj 831 122 s chord_2;
#X obj 827 145 s chord_3;
#X obj 697 373 s chord_4;
#X obj 876 325 s chord_5;
#X obj 786 340 s chord_6;
#X obj 897 295 s chord_7;
#X obj 899 98 s lead_tone1;
#X obj 900 121 s lead_tone2;
#X obj 930 169 unpack s f;
#X obj 931 197 sel 0 1000;
#X msg 961 224 1;
#X msg 930 224 0;
#X obj 1042 173 unpack s f;
#X obj 1043 201 sel 0 1000;
#X msg 1073 228 1;
#X msg 1042 228 0;
#X obj 898 140 s lead_reset;
#X obj 929 250 s lead_onoff;
#X obj 1041 254 s lead_speedup;
#X obj 339 136 s bass_seq4;
#X obj 341 160 s bass_seq5;
#X connect 0 0 1 0;
#X connect 1 0 2 0;
#X connect 1 1 7 0;
#X connect 1 2 12 0;
#X connect 1 3 17 0;
#X connect 1 4 22 0;
#X connect 1 5 27 0;
#X connect 1 6 28 0;
#X connect 1 7 29 0;
#X connect 1 8 30 0;
#X connect 1 9 31 0;
#X connect 1 10 86 0;
#X connect 1 11 87 0;
#X connect 1 12 32 0;
#X connect 1 13 37 0;
#X connect 1 14 41 0;
#X connect 1 15 45 0;
#X connect 1 16 52 0;
#X connect 1 17 53 0;
#X connect 1 18 54 0;
#X connect 1 19 55 0;
#X connect 1 20 56 0;
#X connect 1 21 60 0;
#X connect 1 22 66 0;
#X connect 1 23 67 0;
#X connect 1 24 68 0;
#X connect 1 25 69 0;
#X connect 1 26 71 0;
#X connect 1 27 70 0;
#X connect 1 28 72 0;
#X connect 1 29 73 0;
#X connect 1 30 74 0;
#X connect 1 31 83 0;
#X connect 1 32 75 0;
#X connect 1 33 79 0;
#X connect 2 1 3 0;
#X connect 3 0 5 0;
#X connect 3 1 4 0;
#X connect 4 0 6 0;
#X connect 5 0 6 0;
#X connect 7 1 8 0;
#X connect 8 0 10 0;
#X connect 8 1 9 0;
#X connect 9 0 11 0;
#X connect 10 0 11 0;
#X connect 12 1 13 0;
#X connect 13 0 15 0;
#X connect 13 1 14 0;
#X connect 14 0 16 0;
#X connect 15 0 16 0;
#X connect 17 1 18 0;
#X connect 18 0 20 0;
#X connect 18 1 19 0;
#X connect 19 0 21 0;
#X connect 20 0 21 0;
#X connect 22 1 23 0;
#X connect 23 0 25 0;
#X connect 23 1 24 0;
#X connect 24 0 26 0;
#X connect 25 0 26 0;
#X connect 32 1 33 0;
#X connect 33 0 35 0;
#X connect 33 1 34 0;
#X connect 34 0 36 0;
#X connect 35 0 36 0;
#X connect 37 1 38 0;
#X connect 38 0 40 0;
#X connect 38 1 39 0;
#X connect 39 0 49 0;
#X connect 40 0 49 0;
#X connect 41 1 42 0;
#X connect 42 0 44 0;
#X connect 42 1 43 0;
#X connect 43 0 50 0;
#X connect 44 0 50 0;
#X connect 45 1 46 0;
#X connect 46 0 48 0;
#X connect 46 1 47 0;
#X connect 47 0 51 0;
#X connect 48 0 51 0;
#X connect 56 1 57 0;
#X connect 57 0 59 0;
#X connect 57 1 58 0;
#X connect 58 0 64 0;
#X connect 59 0 64 0;
#X connect 60 1 61 0;
#X connect 61 0 63 0;
#X connect 61 1 62 0;
#X connect 62 0 65 0;
#X connect 63 0 65 0;
#X connect 75 1 76 0;
#X connect 76 0 78 0;
#X connect 76 1 77 0;
#X connect 77 0 84 0;
#X connect 78 0 84 0;
#X connect 79 1 80 0;
#X connect 80 0 82 0;
#X connect 80 1 81 0;
#X connect 81 0 85 0;
#X connect 82 0 85 0;
#X restore -14 21 pd button_new;
#N canvas 70 143 992 467 slider_new 0;
#X obj 14 6 inlet;
#X obj 14 26 OSCroute /horizontal /vertical;
#X obj 51 109 unpack s f;
#X obj 51 129 / 1000;
#X obj 51 169 s drum_vol;
#X obj 51 149 * 200;
#X obj 52 198 unpack s f;
#X obj 52 218 / 1000;
#X obj 52 258 s drum_drill1;
#X obj 52 238 * 127;
#X obj 132 113 unpack s f;
#X obj 132 133 / 1000;
#X obj 132 153 * 127;
#X obj 138 196 unpack s f;
#X obj 138 216 / 1000;
#X obj 138 236 * 127;
#X obj 222 111 unpack s f;
#X obj 222 131 / 1000;
#X obj 222 151 * 127;
#X obj 228 194 unpack s f;
#X obj 228 214 / 1000;
#X obj 228 234 * 127;
#X obj 306 110 unpack s f;
#X obj 306 130 / 1000;
#X obj 306 150 * 127;
#X obj 312 193 unpack s f;
#X obj 312 213 / 1000;
#X obj 312 233 * 127;
#X obj 132 173 s drum_drill2;
#X obj 138 256 s drum_drill3;
#X obj 222 171 s drum_drill4;
#X obj 228 254 s drum_drill5;
#X obj 306 170 s drum_drill6;
#X obj 312 252 s drum_drill7;
#X obj 413 110 unpack s f;
#X obj 413 130 / 1000;
#X obj 413 150 * 200;
#X obj 414 199 unpack s f;
#X obj 414 219 / 1000;
#X obj 414 239 * 127;
#X obj 512 109 unpack s f;
#X obj 512 129 / 1000;
#X obj 518 192 unpack s f;
#X obj 518 212 / 1000;
#X obj 602 107 unpack s f;
#X obj 602 127 / 1000;
#X obj 608 190 unpack s f;
#X obj 608 210 / 1000;
#X obj 608 230 * 127;
#X obj 686 106 unpack s f;
#X obj 686 126 / 1000;
#X obj 692 189 unpack s f;
#X obj 692 209 / 1000;
#X obj 414 259 s bass_vol;
#X obj 512 169 s bass_amp;
#X obj 59 60 OSCroute /5 /6 /7 /8 /9 /10 /11 /12 /16 /22 /23 /24 /25
/26 /27 /33 /34 /35 /47 /53, f 116;
#X obj 789 109 unpack s f;
#X obj 789 129 / 1000;
#X obj 789 149 * 127;
#X obj 795 192 unpack s f;
#X obj 795 212 / 1000;
#X obj 873 108 unpack s f;
#X obj 873 128 / 1000;
#X obj 873 148 * 127;
#X obj 879 191 unpack s f;
#X obj 879 211 / 1000;
#X obj 518 252 s gl_tone;
#X obj 602 167 s gl_wob;
#X obj 686 166 s gl_glide;
#X obj 512 149 * 80;
#X obj 518 232 * 1;
#X obj 602 147 * 1;
#X obj 686 146 * 1;
#X obj 692 229 * 100;
#X obj 688 260 + 80;
#X obj 789 169 s chord_vel;
#X obj 792 252 s chord_vol;
#X obj 873 168 s lead_velbar;
#X obj 879 250 s lead_volbar;
#X obj 795 232 * 130;
#X obj 879 231 * 80;
#X obj 413 170 s bng;
#X obj 608 250 s gturn;
#X obj 692 286 s dis;
#X connect 0 0 1 0;
#X connect 1 0 55 0;
#X connect 2 1 3 0;
#X connect 3 0 5 0;
#X connect 5 0 4 0;
#X connect 6 1 7 0;
#X connect 7 0 9 0;
#X connect 9 0 8 0;
#X connect 10 1 11 0;
#X connect 11 0 12 0;
#X connect 12 0 28 0;
#X connect 13 1 14 0;
#X connect 14 0 15 0;
#X connect 15 0 29 0;
#X connect 16 1 17 0;
#X connect 17 0 18 0;
#X connect 18 0 30 0;
#X connect 19 1 20 0;
#X connect 20 0 21 0;
#X connect 21 0 31 0;
#X connect 22 1 23 0;
#X connect 23 0 24 0;
#X connect 24 0 32 0;
#X connect 25 1 26 0;
#X connect 26 0 27 0;
#X connect 27 0 33 0;
#X connect 34 1 35 0;
#X connect 35 0 36 0;
#X connect 36 0 81 0;
#X connect 37 1 38 0;
#X connect 38 0 39 0;
#X connect 39 0 53 0;
#X connect 40 1 41 0;
#X connect 41 0 69 0;
#X connect 42 1 43 0;
#X connect 43 0 70 0;
#X connect 44 1 45 0;
#X connect 45 0 71 0;
#X connect 46 1 47 0;
#X connect 47 0 48 0;
#X connect 48 0 82 0;
#X connect 49 1 50 0;
#X connect 50 0 72 0;
#X connect 51 1 52 0;
#X connect 52 0 73 0;
#X connect 55 0 2 0;
#X connect 55 1 6 0;
#X connect 55 2 10 0;
#X connect 55 3 13 0;
#X connect 55 4 16 0;
#X connect 55 5 19 0;
#X connect 55 6 22 0;
#X connect 55 7 25 0;
#X connect 55 8 34 0;
#X connect 55 9 37 0;
#X connect 55 10 40 0;
#X connect 55 11 42 0;
#X connect 55 12 44 0;
#X connect 55 13 46 0;
#X connect 55 14 49 0;
#X connect 55 15 51 0;
#X connect 55 16 56 0;
#X connect 55 17 59 0;
#X connect 55 18 61 0;
#X connect 55 19 64 0;
#X connect 56 1 57 0;
#X connect 57 0 58 0;
#X connect 58 0 75 0;
#X connect 59 1 60 0;
#X connect 60 0 79 0;
#X connect 61 1 62 0;
#X connect 62 0 63 0;
#X connect 63 0 77 0;
#X connect 64 1 65 0;
#X connect 65 0 80 0;
#X connect 69 0 54 0;
#X connect 70 0 66 0;
#X connect 71 0 67 0;
#X connect 72 0 68 0;
#X connect 73 0 74 0;
#X connect 74 0 83 0;
#X connect 79 0 76 0;
#X connect 80 0 78 0;
#X restore 48 -37 pd slider_new;
#X connect 0 0 1 0;
#X connect 1 0 3 0;
#X connect 1 0 9 0;
#X connect 2 0 5 0;
#X connect 2 1 5 1;
#X connect 3 0 10 0;
#X connect 3 1 11 0;
#X connect 3 2 7 0;
#X connect 7 0 2 0;
